{"glyphs":{"0":{"ha":794,"x_min":37,"x_max":741,"o":"m 388 165 q 511 280 479 165 q 528 467 528 344 q 511 648 528 585 q 388 762 479 762 q 267 648 298 762 q 250 467 250 585 q 267 280 250 344 q 388 165 298 165 m 388 962 q 637 855 547 962 q 741 467 741 730 q 637 72 741 199 q 388 -36 547 -36 q 141 72 230 -36 q 37 467 37 199 q 141 855 37 730 q 388 962 231 962 z "},"1":{"ha":527,"x_min":34,"x_max":393,"o":"m 242 929 q 213 914 224 929 q 164 823 199 857 q 69 783 125 786 l 69 783 q 44 772 54 783 q 34 747 34 762 l 34 647 q 44 622 34 633 q 69 612 54 612 l 176 612 l 176 35 q 186 10 176 20 q 211 0 196 0 l 358 0 q 382 10 372 0 q 393 35 393 20 l 393 895 q 382 919 393 909 q 358 929 372 929 l 242 929 z "},"2":{"ha":771,"x_min":30,"x_max":709,"o":"m 364 187 l 622 424 q 709 640 709 516 q 622 856 709 764 q 408 960 536 947 q 372 962 390 962 l 372 962 q 150 884 245 962 q 30 640 42 795 q 40 615 30 625 q 64 605 50 605 l 213 605 q 247 632 241 605 q 309 744 257 712 q 372 762 338 762 q 457 726 422 762 q 492 640 492 690 q 460 557 492 593 l 46 178 q 35 153 35 168 l 35 35 q 45 10 35 20 q 70 0 56 0 l 671 0 q 696 10 686 0 q 706 35 706 20 l 706 153 q 696 177 706 167 q 671 187 686 187 l 364 187 z "},"3":{"ha":800,"x_min":30,"x_max":739,"o":"m 593 481 q 703 591 673 526 q 723 688 723 635 q 630 888 723 813 q 387 962 538 963 q 67 772 166 962 q 42 688 47 730 q 52 664 42 674 q 77 654 62 654 l 237 654 q 269 674 258 654 q 394 751 298 751 q 475 726 444 751 q 507 663 507 701 q 475 599 507 624 q 394 573 444 573 l 333 573 q 309 563 319 573 q 298 538 298 553 l 298 421 q 309 396 298 406 q 333 386 319 386 l 394 386 q 487 355 450 386 q 524 275 524 323 q 487 195 524 227 q 394 165 450 165 q 260 250 295 165 q 229 270 250 270 l 64 270 q 40 260 50 270 q 30 235 30 250 q 43 176 34 205 q 52 152 51 151 q 187 9 90 60 q 387 -36 275 -36 q 627 33 530 -36 q 739 252 739 113 q 593 481 739 420 z "},"4":{"ha":821,"x_min":41,"x_max":762,"o":"m 430 368 l 430 619 l 267 368 l 430 368 m 726 368 q 751 358 741 368 q 762 333 762 348 l 762 216 q 751 191 762 201 q 726 180 741 180 l 647 180 l 647 35 q 637 10 647 20 q 612 0 627 0 l 465 0 q 440 10 450 0 q 430 35 430 20 l 430 180 l 75 180 q 51 191 61 180 q 41 216 41 201 l 41 333 q 47 353 41 344 l 412 915 q 440 928 423 928 l 612 928 q 637 918 627 928 q 647 894 647 908 l 647 368 l 726 368 z "},"5":{"ha":751,"x_min":18,"x_max":696,"o":"m 359 608 q 311 605 336 608 l 328 734 l 619 734 q 644 745 634 734 q 654 770 654 755 l 654 894 q 644 918 654 908 q 619 928 634 928 l 166 928 q 142 918 152 928 q 131 893 133 909 l 73 462 q 94 425 70 435 l 231 374 q 264 378 249 368 q 354 408 303 408 l 358 408 q 444 372 409 408 q 480 286 480 337 q 444 200 480 236 q 358 165 409 165 q 286 188 319 165 q 240 247 252 211 q 207 270 231 270 l 52 270 q 28 260 38 270 q 18 235 18 250 q 18 231 18 234 q 44 152 26 185 l 44 152 q 171 17 84 68 q 359 -36 258 -36 q 597 59 499 -36 q 696 286 696 153 q 597 514 696 420 q 359 608 499 608 z "},"6":{"ha":741,"x_min":28,"x_max":703,"o":"m 366 165 q 280 200 315 165 q 245 286 245 236 q 280 372 245 337 q 366 408 315 408 q 451 372 416 408 q 486 286 486 337 q 451 200 486 236 q 366 165 416 165 m 537 886 l 536 886 q 540 899 540 892 q 531 920 540 911 q 509 929 522 929 l 345 929 q 344 929 344 929 q 343 929 344 929 q 342 929 342 929 q 309 907 318 929 l 58 419 l 58 418 q 28 286 28 355 q 127 58 28 153 q 366 -36 226 -36 q 604 58 505 -36 q 703 286 703 153 q 613 505 703 412 q 393 608 524 597 l 537 886 z "},"7":{"ha":704,"x_min":19,"x_max":662,"o":"m 662 895 q 651 919 662 909 q 627 929 641 929 l 54 929 q 29 919 39 929 q 19 895 19 909 l 19 770 q 29 745 19 755 q 54 735 39 735 l 410 735 l 111 56 l 111 56 q 104 35 104 46 q 114 11 104 21 q 139 0 124 0 l 302 0 q 302 0 302 0 q 303 0 302 0 q 304 0 304 0 q 338 24 330 0 l 658 754 q 662 770 662 762 l 662 895 z "},"8":{"ha":777,"x_min":33,"x_max":723,"o":"m 378 751 q 296 726 328 751 q 264 663 264 701 q 296 598 264 624 q 378 573 328 573 q 460 598 427 573 q 492 663 492 624 q 460 726 492 701 q 378 751 427 751 m 378 386 q 285 354 321 386 q 248 275 248 323 q 285 195 248 227 q 378 164 321 164 q 471 195 434 164 q 508 275 508 227 q 471 354 508 323 q 378 386 434 386 m 378 -36 q 141 33 237 -36 q 33 252 33 112 q 178 481 33 419 q 83 564 117 510 q 49 688 49 618 q 138 888 49 813 q 378 962 228 962 q 617 888 528 962 q 707 688 707 813 q 673 564 707 618 q 577 481 639 510 q 723 252 723 419 q 614 33 723 112 q 378 -36 519 -36 z "},"9":{"ha":728,"x_min":13,"x_max":688,"o":"m 230 640 q 265 726 230 690 q 351 762 300 762 q 436 726 400 762 q 471 640 471 690 q 436 554 471 589 q 351 518 400 518 q 265 554 300 518 q 230 640 230 589 m 659 508 q 688 640 688 571 q 589 867 688 773 q 351 962 490 962 q 112 867 211 962 q 13 640 13 773 q 103 421 13 514 q 322 319 192 329 l 180 43 l 181 43 q 178 31 178 37 q 186 9 178 18 q 208 0 195 0 l 373 0 q 374 0 374 0 q 374 0 374 0 q 376 0 375 0 q 408 22 399 0 l 658 507 l 659 508 z "}," ":{"ha":326,"x_min":0,"x_max":0,"o":""},"!":{"ha":347,"x_min":39,"x_max":283,"o":"m 49 97 q 81 176 49 144 q 161 209 115 209 q 240 176 207 209 q 273 97 273 144 q 240 18 273 51 q 161 -15 207 -15 q 81 18 115 -15 q 49 97 49 51 m 39 928 q 49 952 39 942 q 73 962 59 962 l 248 962 q 273 952 262 962 q 283 928 283 942 l 237 326 q 227 301 237 311 q 202 291 216 291 l 119 291 q 95 301 105 291 q 85 326 85 311 l 39 928 z "},"\"":{"ha":663,"x_min":58,"x_max":555,"o":"m 281 834 q 248 911 280 880 q 170 943 215 943 q 90 911 123 943 q 58 831 58 878 q 108 738 58 771 l 108 738 q 129 675 136 718 q 91 609 124 642 q 87 586 78 596 l 102 571 q 124 570 111 564 q 144 583 129 572 q 180 613 155 591 q 253 713 224 652 q 281 834 286 779 l 281 834 m 551 834 q 517 911 550 880 q 439 943 485 943 q 360 911 393 943 q 328 831 328 878 q 378 739 328 772 l 378 739 q 399 675 406 718 q 361 609 394 642 q 357 586 348 596 l 372 572 q 394 570 381 564 q 414 583 399 572 q 450 613 425 591 q 524 713 494 652 q 551 834 555 779 l 551 834 z "},"#":{"ha":900,"x_min":68,"x_max":797,"o":"m 359 386 l 486 386 l 506 538 l 379 538 l 359 386 m 460 0 q 442 8 449 0 q 436 26 435 16 l 464 227 l 337 227 l 309 20 q 286 0 306 0 l 164 0 q 146 8 154 0 q 141 26 140 16 l 169 227 l 92 227 q 75 233 81 227 q 68 250 68 240 l 68 362 q 75 378 68 372 q 92 386 81 386 l 191 386 l 211 538 l 133 538 q 117 545 123 538 q 110 561 110 551 l 110 673 q 117 690 110 683 q 133 696 123 696 l 233 696 l 262 909 q 286 929 265 929 l 406 929 q 424 921 417 929 q 429 903 431 913 l 401 696 l 528 696 l 557 909 q 581 929 560 929 l 701 929 q 719 921 712 929 q 724 903 726 913 l 696 696 l 774 696 q 790 690 783 696 q 797 673 797 683 l 797 561 q 790 545 797 551 q 774 538 783 538 l 675 538 l 654 386 l 732 386 q 748 378 741 386 q 755 362 755 372 l 755 250 q 748 233 755 240 q 732 227 741 227 l 632 227 l 604 20 q 581 0 601 0 l 460 0 z "},"$":{"ha":852,"x_min":18,"x_max":805,"o":"m 805 281 q 429 555 805 538 q 329 572 361 558 q 282 647 282 594 q 307 714 282 688 q 423 752 342 752 q 560 675 536 752 q 574 665 564 665 l 774 665 q 790 681 790 665 q 707 846 778 783 q 517 928 636 910 l 517 1035 q 507 1059 517 1049 q 482 1069 496 1069 l 364 1069 q 340 1059 350 1069 q 329 1035 329 1049 l 329 929 q 100 804 168 907 q 54 647 54 737 q 142 448 54 513 q 418 373 229 381 q 517 358 484 370 q 578 281 578 336 q 536 200 578 230 q 423 170 494 170 q 326 192 366 170 q 274 252 286 214 q 260 262 270 262 l 35 262 q 18 245 18 262 q 26 232 18 237 l 31 228 q 37 222 35 225 q 56 194 50 210 l 56 193 q 328 -1 111 32 l 328 -106 q 338 -132 328 -121 q 363 -142 349 -142 l 481 -142 q 506 -132 496 -142 q 517 -106 517 -121 l 517 -1 q 740 105 664 19 q 805 281 805 178 z "},"%":{"ha":1229,"x_min":35,"x_max":1175,"o":"m 932 86 q 1013 121 979 86 q 1048 207 1048 157 q 1013 292 1048 257 q 932 328 979 328 q 850 292 884 328 q 817 207 817 257 q 850 121 817 157 q 932 86 884 86 m 932 449 q 1103 378 1032 449 q 1175 207 1175 307 q 1103 36 1175 106 q 932 -36 1032 -36 q 761 36 831 -36 q 690 207 690 106 q 761 378 690 307 q 932 449 831 449 m 956 899 q 958 926 968 917 q 941 930 954 930 l 844 930 q 817 922 828 930 q 796 902 804 913 l 272 32 q 271 4 260 14 q 287 1 274 1 l 384 1 q 412 9 399 1 q 431 29 423 18 l 956 899 m 277 600 q 358 635 324 600 q 392 721 392 671 q 358 806 392 770 q 277 842 324 842 q 195 806 229 842 q 161 721 161 770 q 195 635 161 671 q 277 600 229 600 m 277 962 q 448 892 377 962 q 519 721 519 821 q 448 549 519 621 q 277 479 377 479 q 105 549 176 479 q 35 721 35 621 q 105 892 35 821 q 277 962 176 962 z "},"&":{"ha":1052,"x_min":49,"x_max":996,"o":"m 443 772 q 391 753 411 772 q 371 705 371 734 q 433 610 371 668 q 521 709 521 665 q 494 758 521 742 q 443 772 473 772 m 361 391 q 303 347 319 365 q 277 283 277 319 q 317 203 277 239 q 401 167 357 167 q 522 216 462 167 l 361 391 m 391 -36 q 158 35 254 -36 q 49 256 49 115 q 99 408 49 338 q 231 513 149 478 q 142 711 142 614 q 241 906 142 839 q 446 962 324 962 q 652 896 575 962 q 730 720 730 830 q 557 485 730 586 l 663 378 l 735 488 q 749 495 741 495 l 975 495 q 991 486 986 495 q 989 467 996 475 l 807 224 l 984 35 q 993 18 993 26 q 987 5 993 11 q 974 0 981 0 l 726 0 q 713 6 718 0 l 659 65 q 391 -36 553 -36 z "},"'":{"ha":340,"x_min":58,"x_max":286,"o":"m 281 834 q 248 911 280 880 q 170 943 215 943 q 90 911 123 943 q 58 831 58 878 q 108 738 58 771 l 108 738 q 129 675 136 718 q 91 609 124 642 q 87 586 78 596 l 102 571 q 124 570 111 564 q 144 583 129 572 q 180 613 155 591 q 253 713 224 652 q 281 834 286 779 l 281 834 z "},"(":{"ha":532,"x_min":75,"x_max":406,"o":"m 231 -133 q 115 142 155 -5 q 75 449 75 288 q 115 757 75 610 q 231 1031 155 903 q 245 1043 237 1041 q 263 1038 254 1044 l 394 951 q 404 935 403 944 q 400 918 406 926 q 305 694 336 811 q 275 449 275 576 q 305 205 275 321 q 400 -19 338 87 q 404 -37 406 -27 q 394 -52 403 -46 l 263 -139 q 245 -144 254 -146 q 231 -133 237 -142 z "},")":{"ha":538,"x_min":81,"x_max":412,"o":"m 254 1031 q 371 758 331 903 q 412 450 412 611 q 371 142 412 288 q 254 -132 331 -4 q 240 -144 249 -142 q 223 -139 231 -146 l 92 -52 q 82 -36 83 -45 q 86 -19 81 -27 q 180 205 150 88 q 212 450 212 322 q 181 694 212 578 q 86 918 149 812 q 82 935 81 926 q 92 951 83 945 l 223 1038 q 240 1043 231 1044 q 254 1031 249 1042 z "},"*":{"ha":572,"x_min":-1,"x_max":513,"o":"m 350 439 q 347 440 349 439 q 337 446 341 441 l 254 560 l 172 448 q 161 441 168 443 q 149 445 154 441 l 61 511 q 54 522 56 515 q 58 534 54 528 l 142 645 l 11 690 q 1 699 5 692 q 1 711 -1 705 l 35 814 q 44 823 38 821 q 56 824 50 827 l 185 778 l 185 913 q 190 924 185 920 q 201 929 195 929 l 313 929 q 323 924 319 929 q 328 913 328 920 l 328 777 l 458 820 q 471 819 465 822 q 479 809 477 816 l 511 706 q 510 694 513 700 q 500 686 507 688 l 371 644 l 453 532 q 456 519 457 526 q 450 509 455 513 l 359 443 q 350 439 355 439 z "},"+":{"ha":798,"x_min":50,"x_max":726,"o":"m 470 551 l 470 772 q 460 797 470 787 q 435 807 450 807 l 340 807 q 315 797 326 807 q 305 772 305 787 l 305 551 l 84 551 q 60 541 70 551 q 50 517 50 531 l 50 421 q 60 397 50 407 q 84 387 70 387 l 305 387 l 305 165 q 315 141 305 151 q 340 131 326 131 l 435 131 q 460 141 450 131 q 470 165 470 151 l 470 387 l 691 387 q 715 397 705 387 q 726 421 726 407 l 726 517 q 715 541 726 531 q 691 551 705 551 l 470 551 z "},",":{"ha":424,"x_min":57,"x_max":285,"o":"m 280 103 q 247 180 279 149 q 169 212 214 212 q 90 180 123 212 q 57 100 57 146 q 107 7 57 40 l 107 7 q 128 -56 135 -14 q 90 -122 123 -89 q 86 -145 77 -135 l 102 -160 q 123 -161 111 -167 q 144 -149 128 -159 q 179 -118 155 -140 q 252 -18 223 -79 q 281 103 285 48 l 280 103 z "},"-":{"ha":724,"x_min":45,"x_max":655,"o":"m 621 550 q 645 540 635 550 q 655 515 655 530 l 655 420 q 645 396 655 406 q 621 386 635 386 l 80 386 q 56 396 66 386 q 45 420 45 406 l 45 515 q 56 540 45 530 q 80 550 66 550 l 621 550 z "},".":{"ha":339,"x_min":44,"x_max":268,"o":"m 44 99 q 77 178 44 145 q 156 211 110 211 q 235 178 202 211 q 268 99 268 145 q 235 20 268 52 q 156 -13 202 -13 q 77 20 110 -13 q 44 99 44 52 z "},"/":{"ha":597,"x_min":-13,"x_max":574,"o":"m 173 28 q 158 8 168 16 q 133 0 149 0 l 17 0 q -1 3 4 0 q -6 31 -13 13 l 389 901 q 403 921 393 913 q 429 929 413 929 l 544 929 q 562 926 557 929 q 568 898 574 916 l 173 28 z "},":":{"ha":370,"x_min":58,"x_max":281,"o":"m 58 99 q 90 178 58 145 q 170 211 123 211 q 249 178 216 211 q 281 99 281 145 q 249 20 281 52 q 170 -13 216 -13 q 90 20 123 -13 q 58 99 58 52 m 58 593 q 90 672 58 639 q 170 705 123 705 q 249 672 216 705 q 281 593 281 639 q 249 513 281 547 q 170 481 216 481 q 90 513 123 481 q 58 593 58 547 z "},";":{"ha":370,"x_min":57,"x_max":285,"o":"m 57 593 q 90 672 57 640 q 169 705 122 705 q 248 672 215 705 q 281 593 281 640 q 248 514 281 547 q 169 481 215 481 q 90 514 122 481 q 57 593 57 547 m 280 103 q 247 180 279 149 q 169 212 214 212 q 90 180 123 212 q 57 100 57 146 q 107 7 57 40 l 107 7 q 128 -56 135 -14 q 90 -122 123 -89 q 86 -145 77 -135 l 102 -160 q 123 -161 111 -167 q 144 -149 128 -159 q 179 -118 155 -140 q 252 -18 223 -79 q 281 103 285 48 l 280 103 z "},"<":{"ha":705,"x_min":59,"x_max":632,"o":"m 609 843 q 621 840 616 843 q 632 819 632 833 l 632 659 q 620 637 632 644 l 302 483 l 620 328 q 632 307 632 321 l 632 146 q 621 126 632 133 q 598 125 610 119 l 71 397 q 59 417 59 404 l 59 549 q 71 569 59 562 l 598 840 q 609 843 604 843 z "},"=":{"ha":732,"x_min":45,"x_max":655,"o":"m 621 419 q 645 409 635 419 q 655 385 655 399 l 655 290 q 645 265 655 275 q 621 255 635 255 l 80 255 q 56 265 66 255 q 45 290 45 275 l 45 385 q 56 409 45 399 q 80 419 66 419 l 621 419 m 621 683 q 645 673 635 683 q 655 648 655 663 l 655 553 q 645 529 655 539 q 621 519 635 519 l 80 519 q 56 529 66 519 q 45 553 45 539 l 45 648 q 56 673 45 663 q 80 683 66 683 l 621 683 z "},">":{"ha":705,"x_min":59,"x_max":632,"o":"m 82 123 q 93 125 88 123 l 620 397 q 632 417 632 403 l 632 548 q 620 569 632 562 l 93 840 q 71 839 81 846 q 59 819 59 832 l 59 658 q 72 637 59 644 l 389 483 l 72 328 q 59 307 59 321 l 59 146 q 71 126 59 133 q 82 123 76 123 z "},"?":{"ha":716,"x_min":26,"x_max":674,"o":"m 368 962 q 133 886 223 962 q 26 667 41 808 l 26 661 q 35 642 26 650 q 54 634 43 634 l 211 634 q 237 653 233 634 q 274 739 241 706 q 372 774 311 774 q 441 749 414 774 q 470 679 470 723 q 421 589 470 639 q 366 538 405 573 q 296 474 321 497 q 249 351 249 429 l 249 302 q 259 278 249 288 q 283 268 269 268 l 418 268 q 441 278 432 268 q 452 302 452 288 l 452 331 q 505 425 452 384 q 638 559 602 502 q 674 694 674 616 q 583 894 674 821 q 368 962 498 962 m 239 96 q 271 175 239 142 q 351 208 304 208 q 430 175 397 208 q 463 96 463 142 q 430 16 463 49 q 351 -16 397 -16 q 271 16 304 -16 q 239 96 239 49 z "},"@":{"ha":1080,"x_min":27,"x_max":1015,"o":"m 525 575 q 439 544 471 577 q 403 445 405 510 q 419 362 401 392 q 477 330 438 332 q 578 380 549 328 q 600 473 597 412 q 591 535 601 513 q 525 575 575 573 m 547 -36 q 176 107 325 -36 q 27 462 27 250 q 176 818 27 673 q 539 962 324 962 q 863 849 727 962 q 1015 520 1015 724 q 871 244 1015 328 q 703 195 787 195 q 592 256 612 195 q 439 195 524 195 q 297 260 351 195 q 245 427 245 323 q 311 627 245 547 q 510 717 384 717 q 638 660 596 717 l 644 692 q 656 701 646 701 l 779 701 q 788 697 784 701 q 790 688 791 693 l 743 439 q 732 355 732 384 q 765 330 732 330 q 838 374 807 330 q 872 513 872 425 q 781 743 872 658 q 535 828 690 828 q 279 724 380 828 q 178 462 178 621 q 284 201 178 302 q 557 99 390 99 q 804 183 699 99 q 812 186 808 186 l 949 186 q 960 179 957 186 q 959 167 963 173 q 781 18 889 71 q 547 -36 673 -36 z "},"A":{"ha":901,"x_min":-20,"x_max":897,"o":"m 359 351 q 348 361 348 351 q 349 367 348 364 l 349 367 q 397 511 357 393 q 438 634 433 619 l 440 634 l 530 367 q 531 361 531 364 q 519 351 531 351 l 359 351 m 552 907 q 519 928 543 928 l 269 928 q 248 920 257 928 q 239 899 239 911 q 253 875 239 884 l 252 874 q 262 866 258 871 l 263 865 q 264 865 265 863 q 271 856 268 860 q 273 853 271 856 q 278 842 276 848 q 279 842 279 842 q 284 814 284 828 l 284 807 q 279 787 283 796 l -15 28 q -13 7 -20 16 q 11 0 -6 0 l 191 0 q 212 5 205 0 q 224 23 220 11 l 273 150 l 605 150 l 653 23 q 665 5 657 11 q 688 0 673 0 l 867 0 q 890 7 884 0 q 892 28 897 16 l 552 907 z "},"B":{"ha":932,"x_min":14,"x_max":856,"o":"m 568 248 q 497 222 545 222 l 312 222 q 300 227 305 222 q 294 239 294 232 l 294 385 q 300 397 294 391 q 312 402 305 402 l 498 402 q 568 378 545 402 q 590 313 590 354 q 568 248 590 273 m 294 689 q 300 702 294 696 q 312 707 305 707 l 488 707 q 552 686 534 707 q 569 627 569 665 q 551 567 569 587 q 488 547 533 547 l 312 547 q 300 552 305 547 q 294 565 294 557 l 294 689 m 821 429 q 723 505 787 478 q 802 571 770 531 q 834 687 835 611 q 758 866 834 804 q 516 928 682 928 l 119 928 l 43 929 q 22 920 31 929 q 14 899 14 911 q 27 875 14 884 q 37 866 32 871 q 58 814 58 845 l 58 35 q 69 10 58 21 q 94 0 79 0 l 513 0 q 770 78 684 0 q 856 299 856 157 q 821 429 856 379 z "},"C":{"ha":899,"x_min":14,"x_max":859,"o":"m 678 264 q 513 205 606 205 q 330 280 406 205 q 254 463 254 356 q 330 646 254 570 q 513 722 406 722 q 678 662 606 722 q 701 654 688 654 q 724 664 715 655 l 848 783 q 859 806 858 792 q 850 831 859 820 q 513 962 705 962 q 160 816 306 962 q 14 463 14 670 q 160 110 14 256 q 513 -36 306 -36 q 850 96 705 -36 q 859 121 859 106 q 848 144 858 134 l 724 262 q 701 272 715 271 q 678 264 688 273 z "},"D":{"ha":958,"x_min":14,"x_max":901,"o":"m 654 429 q 591 263 654 313 q 436 222 538 222 l 311 222 q 298 227 303 222 q 293 239 293 233 l 293 690 q 298 702 293 697 q 311 707 303 707 l 436 707 q 591 667 538 707 q 654 500 654 616 l 654 429 m 43 929 q 22 920 31 929 q 14 899 14 911 q 27 875 14 884 q 37 867 32 871 q 58 815 58 845 l 58 35 q 69 11 58 21 q 94 0 79 0 l 443 0 q 768 113 644 0 q 901 449 901 233 l 901 480 q 768 817 901 696 q 443 929 644 929 l 43 929 z "},"E":{"ha":901,"x_min":14,"x_max":802,"o":"m 766 707 q 791 718 781 707 q 802 743 802 728 l 802 894 q 791 919 802 909 q 766 929 781 929 l 43 929 q 22 920 31 929 q 14 899 14 911 q 27 875 14 884 l 27 875 q 37 867 32 871 q 58 814 58 845 l 58 35 q 69 10 58 20 q 94 0 79 0 l 766 0 q 791 10 781 0 q 802 35 802 21 l 802 186 q 791 212 802 201 q 766 222 781 222 l 326 222 q 313 227 319 222 q 308 239 308 232 l 308 341 q 313 353 308 349 q 326 359 319 359 l 751 359 q 776 369 766 359 q 787 394 787 379 l 787 535 q 776 559 787 549 q 751 570 766 570 l 326 570 q 313 576 319 570 q 308 588 308 581 l 308 690 q 313 702 308 697 q 326 707 319 707 l 766 707 z "},"F":{"ha":857,"x_min":14,"x_max":768,"o":"m 43 929 q 22 920 31 929 q 14 899 14 911 q 27 875 14 884 l 27 875 q 37 867 32 871 q 58 814 58 845 l 58 36 q 68 10 58 21 q 94 0 79 0 l 273 0 q 298 10 288 0 q 308 36 308 21 l 308 348 q 313 360 308 355 q 326 366 319 366 l 718 366 q 743 376 732 366 q 753 400 753 386 l 753 542 q 743 566 753 556 q 718 577 732 577 l 326 577 q 313 582 319 577 q 308 595 308 587 l 308 690 q 313 702 308 697 q 326 707 319 707 l 732 707 q 758 718 747 707 q 768 743 768 728 l 768 894 q 758 919 768 909 q 732 929 747 929 l 43 929 z "},"G":{"ha":1019,"x_min":14,"x_max":930,"o":"m 549 554 q 524 543 534 554 q 513 518 513 533 l 513 378 q 524 353 513 363 q 549 342 534 342 l 671 342 q 684 337 679 342 q 689 325 689 332 l 689 282 q 684 270 689 275 q 513 205 611 205 q 330 281 406 205 q 254 463 254 356 q 330 646 254 570 q 513 722 406 722 q 678 662 606 722 q 701 654 688 654 q 724 664 715 655 l 848 783 q 859 806 858 792 q 849 831 859 820 q 513 962 706 962 q 160 817 306 962 q 14 463 14 670 q 160 111 14 256 q 513 -36 306 -36 q 750 24 640 -36 q 926 184 857 82 q 930 200 930 191 l 930 518 q 920 543 930 532 q 894 554 909 554 l 549 554 z "},"H":{"ha":1008,"x_min":14,"x_max":905,"o":"m 691 929 q 666 918 676 929 q 655 893 655 908 l 655 608 q 650 595 655 600 q 637 589 645 589 l 326 589 q 313 595 319 589 q 308 608 308 600 l 308 893 q 298 919 308 908 q 272 929 287 929 l 43 929 q 22 920 31 929 q 14 899 14 911 q 27 875 14 884 q 37 867 32 871 q 58 815 58 845 l 58 36 q 69 11 58 21 q 94 0 79 0 l 272 0 q 298 11 287 0 q 308 36 308 21 l 308 343 q 313 355 308 351 q 326 361 319 361 l 637 361 q 650 355 645 361 q 655 343 655 351 l 655 36 q 666 11 655 21 q 691 0 676 0 l 869 0 q 895 11 884 0 q 905 36 905 21 l 905 893 q 895 919 905 908 q 869 929 884 929 l 691 929 z "},"I":{"ha":437,"x_min":14,"x_max":308,"o":"m 43 929 q 22 920 31 929 q 14 899 14 911 q 27 875 14 884 q 37 867 32 871 q 58 815 58 845 l 58 36 q 69 11 58 21 q 94 0 79 0 l 272 0 q 298 11 287 0 q 308 36 308 21 l 308 893 q 298 919 308 908 q 272 929 287 929 l 43 929 z "},"J":{"ha":831,"x_min":1,"x_max":701,"o":"m 437 929 q 416 920 425 929 q 407 899 407 911 q 420 875 407 884 q 430 867 425 871 q 452 817 451 846 l 452 817 l 452 278 q 422 207 452 237 q 351 178 393 178 q 279 207 309 178 q 250 278 250 237 q 250 334 250 288 q 222 369 250 363 l 29 369 q 1 334 1 363 l 1 279 q 103 56 1 149 q 351 -36 206 -36 q 598 56 496 -36 q 701 277 701 147 l 701 277 l 701 893 q 691 918 701 907 q 665 929 680 929 l 437 929 z "},"K":{"ha":926,"x_min":14,"x_max":911,"o":"m 898 54 q 888 62 893 58 q 882 70 885 66 l 882 71 l 536 489 l 875 892 q 877 918 886 905 q 857 929 869 929 l 623 929 q 585 905 601 928 l 311 546 l 309 546 l 309 893 q 298 918 309 907 q 273 929 288 929 l 43 929 q 22 920 31 929 q 14 899 14 911 q 27 875 14 884 q 37 867 32 871 q 58 814 58 845 l 58 36 q 69 11 58 22 q 94 0 79 0 l 273 0 q 298 11 288 0 q 309 36 309 21 l 309 403 l 311 403 l 605 24 q 642 0 621 2 l 882 0 q 903 9 894 0 q 911 30 911 18 q 898 54 911 45 l 898 54 z "},"L":{"ha":814,"x_min":14,"x_max":766,"o":"m 326 222 q 313 227 319 222 q 308 239 308 232 l 308 893 q 298 918 308 908 q 272 929 287 929 l 43 929 q 22 920 31 929 q 14 899 14 911 q 27 875 14 884 q 37 867 32 871 q 58 814 58 845 l 58 36 q 68 11 58 21 q 94 0 79 0 l 730 0 q 755 11 745 0 q 766 36 766 21 l 766 186 q 755 211 766 201 q 730 222 745 222 l 326 222 z "},"M":{"ha":1225,"x_min":-24,"x_max":1219,"o":"m 1206 54 q 1196 62 1201 58 q 1178 94 1183 76 q 1178 93 1178 94 l 963 895 q 930 928 955 926 q 886 900 908 934 l 618 478 q 597 467 609 467 q 577 478 586 467 l 309 900 q 268 928 289 932 q 232 895 241 928 l 18 93 q 17 94 18 94 q -1 62 12 76 q -11 54 -6 58 l -11 54 q -24 30 -24 45 q -16 9 -24 18 q 5 0 -7 0 l 214 0 q 241 10 228 0 q 257 34 254 20 l 333 323 q 345 338 336 337 q 361 328 353 340 l 577 36 q 597 24 585 24 q 618 36 609 24 l 833 328 q 850 338 842 340 q 862 323 859 337 l 938 34 q 954 10 941 20 q 981 0 967 0 l 1190 0 q 1211 9 1202 0 q 1219 30 1219 18 q 1206 54 1219 45 l 1206 54 z "},"N":{"ha":1071,"x_min":58,"x_max":987,"o":"m 974 54 q 964 62 968 58 q 942 115 942 84 l 942 895 q 932 919 942 909 q 906 929 921 929 l 736 929 q 712 919 722 929 q 702 894 702 908 l 702 439 q 694 429 702 432 q 682 432 688 426 l 290 918 q 264 929 279 929 l 94 929 q 69 919 79 929 q 58 895 58 909 l 58 35 q 69 10 58 21 q 94 0 79 0 l 264 0 q 289 11 278 0 q 299 36 299 21 l 299 483 q 306 494 299 491 q 318 490 313 496 l 712 10 q 736 0 722 0 l 957 0 q 978 9 969 0 q 987 30 987 18 q 974 54 987 45 z "},"O":{"ha":1044,"x_min":0,"x_max":998,"o":"m 499 205 q 324 281 397 205 q 252 463 252 356 q 324 646 252 570 q 499 722 397 722 q 674 646 602 722 q 746 463 746 570 q 674 281 746 356 q 499 205 602 205 m 499 962 q 146 816 292 962 q 0 463 0 670 q 146 111 0 256 q 499 -36 292 -36 q 852 111 706 -36 q 998 463 998 256 q 852 816 998 670 q 499 962 706 962 z "},"P":{"ha":895,"x_min":14,"x_max":842,"o":"m 605 606 q 587 562 605 581 q 545 545 570 545 l 318 545 q 305 550 311 545 q 300 562 300 555 l 300 690 q 305 703 300 697 q 318 707 311 707 l 545 707 q 587 690 570 707 q 605 647 605 672 l 605 606 m 43 929 q 22 920 31 929 q 14 899 14 911 q 27 875 14 884 q 37 867 32 871 q 58 815 58 845 l 58 36 q 68 11 58 21 q 94 0 79 0 l 264 0 q 290 11 279 0 q 300 36 300 21 l 300 306 q 305 319 300 313 q 317 324 311 323 l 540 324 q 753 412 665 324 q 842 627 842 501 q 753 840 842 752 q 540 929 665 929 l 43 929 z "},"Q":{"ha":1044,"x_min":1,"x_max":1000,"o":"m 501 204 q 326 280 399 204 q 254 463 254 356 q 326 646 254 570 q 501 722 398 722 q 675 646 604 722 q 748 463 748 570 q 728 361 748 410 l 705 393 q 665 416 690 416 l 475 416 q 457 404 464 416 q 459 380 450 392 l 578 218 q 501 204 541 204 m 985 18 q 975 26 981 21 q 967 37 970 31 l 886 146 q 1000 463 1000 284 q 853 816 1000 670 q 500 962 707 962 q 147 816 293 962 q 1 463 1 670 q 147 110 1 256 q 500 -37 293 -37 q 726 18 618 -37 l 749 -14 q 789 -37 764 -37 l 969 -37 q 990 -28 981 -37 q 999 -7 999 -19 q 985 18 999 8 l 985 18 z "},"R":{"ha":922,"x_min":14,"x_max":895,"o":"m 605 605 q 587 562 605 580 q 544 545 569 545 l 317 545 q 305 550 311 545 q 300 562 300 555 l 300 690 q 305 703 300 698 q 317 709 311 709 l 544 709 q 587 690 569 709 q 605 648 605 673 l 605 605 m 882 54 q 871 62 876 58 q 859 81 864 71 l 705 373 q 804 480 768 414 q 842 627 842 548 q 753 840 842 751 q 539 929 665 929 l 43 929 q 22 920 31 929 q 14 899 14 911 q 27 875 14 884 l 27 875 q 37 866 32 871 q 58 814 58 845 l 58 36 q 68 11 58 21 q 94 0 79 0 l 264 0 q 289 11 279 0 q 300 36 300 21 l 300 306 q 305 319 300 313 q 317 323 311 323 l 464 323 q 480 313 475 323 l 635 20 q 667 0 644 0 l 865 0 q 886 9 878 0 q 895 30 895 18 q 882 54 895 45 l 882 54 z "},"S":{"ha":880,"x_min":-7,"x_max":819,"o":"m 425 563 q 650 525 595 547 q 722 485 690 509 q 819 273 819 413 q 724 62 819 147 q 418 -37 615 -37 q 171 19 273 -37 q 33 177 68 76 l 33 178 q 16 203 28 192 q 7 212 12 208 q -7 236 -7 221 q 2 257 -7 249 q 23 266 11 266 l 248 266 q 274 247 268 266 q 322 192 286 212 q 418 170 361 170 q 526 199 486 170 q 566 273 566 227 q 412 357 566 353 q 134 437 233 361 q 31 652 31 518 q 127 863 31 775 q 418 962 236 962 q 682 889 578 962 q 803 686 787 815 q 795 667 803 675 q 775 659 786 659 l 574 659 q 548 677 555 659 q 418 749 526 749 q 283 652 283 749 q 323 585 283 605 q 358 573 342 577 q 425 563 382 566 z "},"T":{"ha":868,"x_min":-41,"x_max":846,"o":"m -11 929 q -32 920 -23 929 q -41 899 -41 911 q -27 875 -41 884 q -18 867 -22 871 q 4 814 4 845 l 4 743 q 14 718 4 728 q 40 707 25 707 l 282 707 q 294 702 289 707 q 300 690 300 697 l 300 36 q 310 11 300 21 q 336 0 321 0 l 513 0 q 538 11 528 0 q 549 36 549 21 l 549 690 q 555 702 549 697 q 567 707 560 707 l 810 707 q 835 718 825 707 q 846 743 846 728 l 846 893 q 836 918 846 908 q 810 929 825 929 l -11 929 z "},"U":{"ha":1061,"x_min":14,"x_max":945,"o":"m 731 929 q 705 918 716 929 q 694 893 694 908 l 695 448 q 652 254 695 306 q 502 204 611 204 q 351 254 392 204 q 309 448 309 306 l 309 893 q 298 918 309 908 q 272 929 287 929 l 43 929 q 22 920 31 929 q 14 899 14 911 q 27 875 14 884 l 27 875 q 37 867 32 871 q 58 814 58 845 l 58 438 q 176 79 58 199 q 502 -37 289 -37 q 827 79 714 -37 q 945 438 945 199 l 945 893 q 935 918 945 908 q 909 929 924 929 l 731 929 z "},"V":{"ha":970,"x_min":-20,"x_max":939,"o":"m 699 928 q 669 904 681 926 l 500 424 l 474 342 q 467 336 471 336 q 460 342 464 336 l 435 424 l 265 904 l 265 904 q 235 928 254 926 l 9 928 q -12 920 -3 928 q -20 899 -20 911 q -7 874 -20 884 l -7 874 q 7 864 8 864 q 18 848 14 858 l 332 29 q 370 0 344 1 l 564 0 q 603 29 591 1 l 933 890 q 931 918 939 905 q 911 928 924 928 l 699 928 z "},"W":{"ha":1249,"x_min":-27,"x_max":1230,"o":"m 985 20 q 960 0 981 0 l 740 0 q 713 20 718 0 q 618 482 621 459 l 616 494 q 611 500 616 500 q 606 494 606 500 l 604 482 q 509 20 601 459 q 481 0 505 0 l 261 0 q 237 20 241 0 l 10 845 q -4 865 5 857 q -14 874 -8 870 l -14 874 q -27 898 -27 883 q -18 920 -27 911 q 3 928 -9 928 l 227 928 q 245 920 237 928 q 255 903 254 913 q 380 399 377 424 l 383 377 q 388 369 383 369 q 393 377 393 369 l 395 399 q 487 907 399 425 q 511 928 490 928 l 710 928 q 734 907 731 928 q 826 399 822 425 l 829 377 q 834 369 829 369 q 838 377 838 369 l 842 399 q 966 903 844 424 q 976 920 968 913 q 995 928 985 928 l 1202 928 q 1221 920 1213 928 q 1226 900 1230 911 l 985 20 z "},"X":{"ha":964,"x_min":-29,"x_max":922,"o":"m 918 35 q 915 10 922 21 q 897 0 908 0 l 669 0 q 635 23 648 1 l 455 303 l 258 23 q 224 0 245 1 l -3 0 q -22 10 -15 0 q -24 35 -29 21 l 313 496 l 41 894 q 43 919 36 908 q 61 929 50 929 l 294 929 q 327 906 314 928 l 455 689 l 583 906 q 616 929 596 928 l 849 929 q 867 919 860 929 q 869 894 874 908 l 597 496 l 918 35 z "},"Y":{"ha":872,"x_min":-41,"x_max":855,"o":"m 603 929 q 568 905 582 928 l 411 609 l 254 905 q 219 929 241 928 l -11 929 q -32 920 -23 929 q -41 899 -41 911 q -27 875 -41 884 l -27 875 q -13 865 -13 865 q -5 856 -9 861 l 286 382 l 286 36 q 297 11 286 21 q 322 0 307 0 l 500 0 q 526 11 515 0 q 536 36 536 21 l 536 382 l 850 892 q 848 918 855 907 q 829 929 840 929 l 603 929 z "},"Z":{"ha":923,"x_min":15,"x_max":811,"o":"m 801 718 q 811 743 811 728 l 811 893 q 801 918 811 908 q 776 929 790 929 l 50 929 q 25 918 36 929 q 15 893 15 908 l 15 743 q 26 718 15 728 q 51 707 36 707 l 438 707 q 448 701 446 707 q 446 688 450 694 l 26 212 q 15 186 15 201 l 15 36 q 25 11 15 21 q 50 0 36 0 l 776 0 q 801 11 790 0 q 811 36 811 21 l 811 237 q 802 258 811 249 q 781 267 793 267 q 757 253 766 267 l 757 253 q 748 243 753 248 q 696 222 727 222 l 395 222 q 385 228 387 222 q 387 241 382 235 l 801 718 z "},"[":{"ha":514,"x_min":60,"x_max":351,"o":"m 318 817 q 342 827 332 817 q 351 850 351 836 l 351 960 q 342 983 351 974 q 318 994 332 994 l 94 994 q 70 983 79 994 q 60 960 60 974 l 60 -43 q 70 -66 60 -56 q 94 -77 79 -77 l 318 -77 q 342 -66 332 -77 q 351 -43 351 -56 l 351 67 q 342 91 351 81 q 318 100 332 100 l 260 100 l 260 817 l 318 817 z "},"\\":{"ha":587,"x_min":-28,"x_max":559,"o":"m -22 898 q -16 926 -28 916 q 1 929 -12 929 l 117 929 q 142 921 133 929 q 157 901 153 913 l 552 31 q 547 3 559 13 q 529 0 542 0 l 413 0 q 387 8 397 0 q 373 28 378 16 l -22 898 z "},"]":{"ha":514,"x_min":60,"x_max":351,"o":"m 94 100 q 70 91 79 100 q 60 66 60 81 l 60 -43 q 70 -66 60 -56 q 94 -77 79 -77 l 318 -77 q 342 -66 332 -77 q 351 -43 351 -56 l 351 960 q 342 983 351 974 q 318 994 332 994 l 94 994 q 70 983 79 994 q 60 960 60 974 l 60 850 q 70 826 60 836 q 94 817 79 817 l 152 817 l 152 100 l 94 100 z "},"^":{"ha":722,"x_min":39,"x_max":678,"o":"m 501 454 q 479 467 486 454 l 359 713 l 237 467 q 216 454 230 454 l 66 454 q 46 465 54 454 q 45 488 39 477 l 264 916 q 285 929 271 929 l 433 929 q 454 916 447 929 l 672 488 q 671 465 678 477 q 651 454 664 454 l 501 454 z "},"_":{"ha":623,"x_min":-3,"x_max":567,"o":"m 532 98 q 557 89 547 98 q 567 64 567 79 l 567 35 q 557 10 567 20 q 532 0 547 0 l 31 0 q 7 10 17 0 q -3 35 -3 20 l -3 64 q 7 89 -3 79 q 31 98 17 98 l 532 98 z "},"`":{"ha":311,"x_min":-33,"x_max":285,"o":"m 273 721 q 250 694 285 694 l 158 694 q 139 701 146 694 q -24 895 55 794 q -26 918 -33 907 q -7 929 -20 929 l 144 929 q 170 921 160 929 q 184 901 180 913 q 273 721 273 722 z "},"a":{"ha":852,"x_min":12,"x_max":777,"o":"m 396 174 q 275 224 326 174 q 226 346 226 275 q 275 468 226 417 q 396 518 326 518 q 516 468 466 518 q 566 346 566 417 q 516 224 566 275 q 396 174 466 174 m 595 694 q 570 684 581 694 q 560 660 560 674 l 560 627 q 354 705 468 705 q 115 600 216 705 q 12 346 12 493 q 115 92 12 199 q 354 -13 216 -13 q 560 64 468 -13 l 560 35 q 570 10 560 20 q 595 0 581 0 l 743 0 q 767 10 757 0 q 777 35 777 20 l 777 660 q 767 684 777 674 q 743 694 757 694 l 595 694 z "},"b":{"ha":837,"x_min":-12,"x_max":793,"o":"m 409 174 q 289 224 338 174 q 239 346 239 275 q 289 468 239 418 q 409 518 338 518 q 530 468 479 518 q 579 346 579 418 q 530 224 579 275 q 409 174 479 174 m 451 705 q 245 628 337 705 l 245 895 q 235 919 245 909 q 210 929 224 929 l 15 929 q -4 922 4 929 q -12 903 -12 914 q 0 882 -12 890 q 9 875 5 879 q 28 829 28 856 l 28 35 q 38 10 28 20 q 62 0 47 0 l 210 0 q 235 10 224 0 q 245 35 245 20 l 245 64 q 451 -13 337 -13 q 690 92 589 -13 q 793 346 793 199 q 690 600 793 494 q 451 705 589 705 z "},"c":{"ha":677,"x_min":12,"x_max":637,"o":"m 391 520 q 500 484 446 520 q 526 478 512 477 q 549 489 539 479 l 625 568 q 635 593 636 578 q 623 618 635 608 q 372 705 522 705 q 118 600 224 705 q 12 346 12 494 q 118 92 12 197 q 372 -13 224 -13 q 630 84 524 -13 q 635 103 637 92 q 626 123 634 114 l 549 203 q 526 214 539 213 q 500 208 512 216 q 391 172 446 172 q 277 223 326 172 q 228 346 228 275 q 277 469 228 417 q 391 520 326 520 z "},"d":{"ha":862,"x_min":13,"x_max":779,"o":"m 397 174 q 276 224 326 174 q 227 346 227 275 q 276 468 227 418 q 397 518 326 518 q 517 468 467 518 q 567 346 567 418 q 517 224 567 275 q 397 174 467 174 m 549 929 q 530 922 538 929 q 523 903 523 914 q 534 882 523 890 q 543 874 539 878 q 562 829 562 856 l 562 628 q 355 705 469 705 q 116 600 218 705 q 13 346 13 494 q 116 92 13 199 q 355 -13 218 -13 q 562 64 469 -13 l 562 35 q 572 10 562 20 q 596 0 582 0 l 744 0 q 768 10 758 0 q 779 35 779 20 l 779 895 q 768 919 779 909 q 744 929 758 929 l 549 929 z "},"e":{"ha":759,"x_min":7,"x_max":718,"o":"m 367 537 q 455 509 415 537 q 514 437 494 482 l 219 437 q 278 509 239 482 q 367 537 318 537 m 361 705 q 113 600 217 705 q 7 346 7 494 q 115 92 7 199 q 361 -14 221 -14 q 637 81 526 -14 q 649 108 648 92 q 638 136 649 124 l 571 207 q 548 220 561 218 q 523 213 533 223 l 523 214 q 429 168 484 180 q 378 160 404 160 q 368 160 376 160 q 366 160 367 160 l 366 160 l 366 161 q 269 198 309 164 q 217 282 228 231 l 682 282 q 707 292 697 282 q 718 317 718 302 l 718 359 q 611 606 718 506 q 361 705 507 705 z "},"f":{"ha":488,"x_min":3,"x_max":446,"o":"m 319 694 l 319 761 q 335 800 319 784 q 373 817 351 817 l 393 817 q 417 827 407 817 q 427 851 427 837 l 427 970 q 417 994 427 984 q 393 1004 407 1004 l 367 1004 q 180 930 258 1004 q 102 753 102 857 l 102 694 l 38 694 q 14 685 24 694 q 3 661 3 675 l 3 542 q 14 517 3 528 q 38 507 24 507 l 102 507 l 102 35 q 113 10 102 20 q 137 0 123 0 l 285 0 q 309 10 299 0 q 319 35 319 20 l 319 507 l 411 507 q 435 517 425 507 q 446 542 446 528 l 446 661 q 435 685 446 675 q 411 694 425 694 l 319 694 z "},"g":{"ha":861,"x_min":12,"x_max":818,"o":"m 401 174 q 281 224 331 174 q 231 346 231 275 q 281 467 231 417 q 401 518 331 518 q 522 467 472 518 q 572 346 572 417 q 522 224 572 275 q 401 174 472 174 m 818 668 q 810 686 818 679 q 791 694 802 694 l 595 694 q 571 684 581 694 q 561 659 561 674 l 561 627 q 355 705 469 705 q 115 600 217 705 q 12 346 12 493 q 115 92 12 199 q 355 -13 217 -13 q 561 64 469 -13 l 562 45 q 511 -60 554 -22 q 401 -103 469 -97 q 239 -75 302 -111 q 191 -82 212 -59 l 115 -151 q 102 -177 103 -161 q 110 -205 100 -193 q 237 -268 152 -245 q 389 -288 311 -288 q 659 -189 544 -288 q 779 71 779 -84 l 779 594 q 798 640 779 621 q 806 646 802 644 q 818 668 818 654 z "},"h":{"ha":789,"x_min":20,"x_max":715,"o":"m 715 490 q 642 643 715 579 q 469 706 568 706 q 276 621 351 706 l 276 895 q 266 919 276 909 q 241 929 256 929 l 46 929 q 27 921 35 929 q 20 903 20 913 q 31 882 20 890 l 31 882 q 40 874 36 878 q 59 829 58 856 l 59 35 q 68 10 59 20 q 93 0 79 0 l 241 0 q 266 10 256 0 q 276 35 276 20 l 276 405 l 276 405 q 309 481 277 450 q 387 512 342 512 q 465 481 433 512 q 498 405 498 450 l 498 405 l 498 35 q 509 10 498 20 q 533 0 519 0 l 681 0 q 705 10 695 0 q 715 35 715 20 l 715 490 z "},"i":{"ha":367,"x_min":21,"x_max":281,"o":"m 281 862 q 248 783 281 815 q 169 750 215 750 q 90 783 122 750 q 56 862 56 815 q 90 941 56 908 q 169 974 122 974 q 248 941 215 974 q 281 862 281 908 m 47 694 q 28 687 37 694 q 21 668 21 679 q 33 647 21 655 l 33 647 q 41 640 37 644 q 60 595 60 621 l 60 35 q 70 10 60 20 q 94 0 80 0 l 243 0 q 267 10 257 0 q 277 35 277 20 l 277 660 q 267 684 277 674 q 243 694 257 694 l 47 694 z "},"j":{"ha":357,"x_min":-36,"x_max":292,"o":"m 292 862 q 260 783 292 815 q 180 749 227 749 q 101 783 134 749 q 68 862 68 815 q 101 941 68 908 q 180 974 134 974 q 260 941 227 974 q 292 862 292 908 m 59 694 q 40 686 48 694 q 33 668 33 679 q 44 647 33 655 q 53 640 49 644 q 72 594 72 621 l 72 -44 q 56 -83 72 -66 q 18 -99 40 -99 l -1 -99 q -26 -109 -16 -99 q -36 -134 -36 -119 l -36 -241 q -26 -265 -36 -255 q -1 -275 -16 -275 l 24 -275 q 212 -201 134 -275 q 289 -24 289 -128 l 289 660 q 279 684 289 674 q 254 694 269 694 l 59 694 z "},"k":{"ha":788,"x_min":20,"x_max":767,"o":"m 764 36 q 753 50 761 43 l 427 413 l 703 650 q 711 661 709 657 q 713 671 713 665 q 682 694 713 694 l 484 694 q 450 679 465 694 l 276 526 l 276 895 q 266 919 276 909 q 241 929 256 929 l 46 929 q 27 921 35 929 q 20 903 20 913 q 31 882 20 890 l 31 882 q 40 874 36 878 q 59 829 58 855 l 59 35 q 68 10 59 20 q 93 0 79 0 l 241 0 q 266 10 256 0 q 276 35 276 20 l 276 287 q 518 7 513 12 q 536 1 527 1 l 739 1 q 760 5 753 1 q 767 22 767 10 q 764 36 767 28 z "},"l":{"ha":363,"x_min":19,"x_max":275,"o":"m 45 929 q 26 922 35 929 q 19 903 19 914 q 31 882 19 890 l 31 882 q 39 874 35 878 q 58 829 58 856 l 58 35 q 68 10 58 20 q 92 0 78 0 l 241 0 q 265 10 255 0 q 275 35 275 20 l 275 895 q 265 919 275 909 q 241 929 255 929 l 45 929 z "},"m":{"ha":1166,"x_min":14,"x_max":1092,"o":"m 1091 450 q 1006 631 1086 555 q 822 705 926 705 q 708 675 761 705 q 623 599 656 648 q 545 675 595 647 q 435 705 495 705 q 271 630 334 705 l 271 660 q 260 684 271 675 q 236 694 250 694 l 41 694 q 22 687 30 694 q 14 669 14 680 q 26 648 14 655 l 26 647 q 35 640 31 644 q 54 595 54 621 l 54 35 q 63 10 54 20 q 87 0 73 0 l 236 0 q 260 10 250 0 q 271 35 271 20 l 271 426 q 300 492 271 465 q 372 519 330 519 q 444 492 414 519 q 474 426 474 465 l 474 35 q 484 10 474 20 q 508 0 494 0 l 643 0 q 667 10 657 0 q 677 35 677 20 l 677 426 q 707 492 677 465 q 776 519 735 519 q 846 492 817 519 q 874 426 874 465 l 874 35 q 884 10 874 20 q 909 0 895 0 l 1057 0 q 1082 10 1072 0 q 1092 35 1092 20 l 1092 444 q 1091 450 1092 446 z "},"n":{"ha":806,"x_min":20,"x_max":736,"o":"m 736 447 q 650 629 736 552 q 454 705 564 705 q 275 633 349 705 l 275 660 q 266 684 275 674 q 241 695 256 695 l 46 695 q 27 686 35 695 q 20 669 20 679 q 31 648 20 655 l 31 648 q 39 640 35 644 q 59 594 59 621 l 59 35 q 68 10 59 20 q 94 0 79 0 l 241 0 q 266 10 256 0 q 275 35 275 20 l 275 396 q 311 484 275 447 q 397 519 347 519 q 484 484 448 519 q 519 396 519 447 l 519 35 q 530 10 519 20 q 554 0 540 0 l 702 0 q 727 10 717 0 q 736 35 736 20 l 736 447 z "},"o":{"ha":792,"x_min":13,"x_max":745,"o":"m 378 172 q 273 223 317 172 q 229 346 229 274 q 273 469 229 418 q 378 519 317 519 q 485 469 441 519 q 529 346 529 418 q 485 223 529 274 q 378 172 441 172 m 378 705 q 120 600 227 705 q 13 346 13 494 q 120 92 13 197 q 378 -13 227 -13 q 637 92 530 -13 q 745 346 745 197 q 637 600 745 494 q 378 705 530 705 z "},"p":{"ha":863,"x_min":17,"x_max":822,"o":"m 437 173 q 558 223 508 173 q 608 345 608 274 q 558 467 608 416 q 437 517 508 517 q 317 467 367 517 q 267 345 267 416 q 317 223 267 274 q 437 173 367 173 m 479 704 q 719 599 621 701 q 822 345 822 492 q 719 92 822 198 q 479 -14 617 -14 q 273 63 366 -14 l 273 -241 q 263 -265 273 -255 q 239 -275 253 -275 l 91 -275 q 66 -265 76 -275 q 56 -241 56 -255 l 56 594 q 37 639 56 621 q 28 646 33 643 q 17 667 17 654 q 24 686 17 678 q 43 694 33 694 l 239 694 q 263 684 253 694 q 273 659 273 673 l 273 627 q 363 681 315 661 q 479 704 422 704 z "},"q":{"ha":870,"x_min":22,"x_max":786,"o":"m 406 174 q 286 224 335 174 q 235 347 235 275 q 286 468 235 418 q 406 518 335 518 q 526 468 475 518 q 575 347 575 418 q 526 224 575 275 q 406 174 475 174 m 604 694 q 579 684 589 694 q 569 660 569 674 l 569 627 q 363 705 477 705 q 125 600 226 705 q 22 347 22 494 q 125 93 22 199 q 363 -12 226 -12 q 569 65 477 -12 l 569 -238 q 579 -262 569 -252 q 604 -273 589 -273 l 751 -273 q 776 -262 766 -273 q 786 -238 786 -252 l 786 660 q 776 684 786 674 q 751 694 766 694 l 604 694 z "},"r":{"ha":601,"x_min":19,"x_max":583,"o":"m 275 353 q 322 484 278 444 q 428 518 364 518 q 511 490 474 518 q 546 465 541 467 q 572 469 560 460 q 583 492 583 477 l 583 665 q 562 695 583 687 q 488 705 524 705 q 275 609 357 705 l 275 661 q 265 685 275 675 q 241 695 255 695 l 45 695 q 26 688 35 695 q 19 669 19 680 q 31 648 19 656 q 39 640 35 644 q 58 595 58 621 l 58 35 q 68 10 58 20 q 92 0 78 0 l 241 0 q 265 10 255 0 q 275 35 275 20 q 275 353 275 339 z "},"s":{"ha":699,"x_min":11,"x_max":662,"o":"m 349 432 q 281 447 302 438 q 251 477 257 457 q 270 526 242 504 q 316 547 290 542 q 378 543 349 553 q 425 502 411 532 q 444 490 431 490 l 620 490 q 634 496 628 490 q 640 510 640 502 q 640 513 640 511 q 537 652 627 598 q 345 705 452 705 q 119 635 208 705 q 35 483 35 570 q 340 266 35 307 q 401 251 381 260 q 437 210 435 237 q 412 163 440 182 q 345 144 385 144 q 243 191 259 142 q 224 202 237 202 l 37 202 q 18 195 26 202 q 11 176 11 187 q 22 155 11 163 q 31 148 27 152 q 45 128 40 139 q 50 121 45 126 q 171 23 87 60 q 350 -13 253 -13 q 580 57 491 -13 q 662 210 662 121 q 349 432 662 391 z "},"t":{"ha":509,"x_min":14,"x_max":456,"o":"m 318 507 l 421 507 q 446 517 435 507 q 456 542 456 528 l 456 660 q 446 684 456 674 q 421 694 435 694 l 318 694 l 318 844 q 309 869 318 859 q 283 879 298 879 l 136 879 q 111 869 121 879 q 102 844 102 859 l 102 694 l 48 694 q 24 684 34 694 q 14 660 14 674 l 14 541 q 24 517 14 526 q 48 507 34 507 l 101 507 l 101 157 q 145 37 101 85 q 265 -13 191 -13 q 437 11 363 -13 q 456 41 456 20 l 456 152 q 446 176 456 166 q 422 186 436 186 q 414 186 418 186 l 414 186 q 369 176 387 176 q 333 191 348 176 q 318 227 318 206 l 318 507 z "},"u":{"ha":819,"x_min":15,"x_max":731,"o":"m 549 694 q 524 684 534 694 q 514 660 514 674 l 514 275 q 476 203 511 233 q 393 172 440 172 q 309 203 345 172 q 271 275 274 233 l 271 660 q 261 684 271 674 q 237 694 251 694 l 41 694 q 22 687 31 694 q 15 668 15 679 q 26 647 15 655 l 26 647 q 35 640 31 644 q 54 595 54 621 l 54 280 q 156 49 54 123 q 393 -14 242 -14 q 629 49 543 -14 q 731 280 731 123 l 731 660 q 721 684 731 674 q 696 694 711 694 l 549 694 z "},"v":{"ha":737,"x_min":-29,"x_max":711,"o":"m 514 694 q 492 676 500 693 l 347 292 l 203 676 q 181 694 195 693 l -7 694 q -22 688 -16 694 q -29 672 -29 682 q -19 654 -29 661 q -8 646 -8 646 q 1 631 -3 641 l 1 631 q 2 631 2 631 l 254 22 q 283 0 263 1 l 412 0 q 441 22 432 1 l 707 666 q 706 686 711 677 q 692 694 701 694 l 514 694 z "},"w":{"ha":926,"x_min":-8,"x_max":920,"o":"m 722 694 q 708 688 715 694 q 701 675 702 683 l 629 291 l 538 679 q 519 694 536 694 l 408 694 q 389 679 391 694 l 298 291 l 227 675 q 219 688 225 683 q 205 694 212 694 l 14 694 q -1 688 5 694 q -8 672 -8 682 q 2 654 -8 661 l 2 654 q 9 648 6 651 q 20 631 16 640 l 174 24 q 206 0 181 0 l 346 0 q 378 21 369 0 l 464 283 l 549 21 q 581 0 558 0 l 721 0 q 753 24 746 0 l 917 673 q 913 688 920 682 q 899 694 907 694 l 722 694 z "},"x":{"ha":777,"x_min":-9,"x_max":756,"o":"m 498 359 l 708 668 q 707 686 712 678 q 693 694 701 694 l 489 694 q 464 677 473 693 l 368 509 l 273 677 q 248 694 263 693 l 46 694 q 27 686 35 694 q 20 668 20 679 q 31 647 20 655 l 31 647 q 40 642 32 646 q 49 636 47 637 q 58 624 54 631 l 237 359 l -1 26 q -5 9 -9 18 q 5 0 -3 0 l 219 0 q 244 17 234 1 l 368 215 l 492 17 q 516 0 501 1 l 734 0 q 751 8 745 0 q 749 26 756 16 l 498 359 z "},"y":{"ha":732,"x_min":-22,"x_max":712,"o":"m 712 675 q 706 689 712 683 q 692 694 701 694 l 529 694 q 506 680 512 694 l 359 305 l 193 682 q 171 694 185 694 l 0 694 q -16 688 -9 694 q -22 672 -22 682 q -12 654 -22 661 l -12 654 q -5 648 -9 651 q 5 634 1 642 l 256 73 l 204 -62 l 203 -62 q 153 -98 191 -98 l 106 -98 q 81 -108 92 -98 q 71 -132 71 -118 l 71 -239 q 81 -264 71 -254 q 106 -274 92 -274 l 152 -274 q 298 -233 232 -274 q 393 -125 362 -192 l 394 -125 l 711 668 q 712 675 712 671 z "},"z":{"ha":635,"x_min":20,"x_max":590,"o":"m 286 188 l 572 515 q 580 524 576 519 l 580 524 l 580 524 q 585 542 585 532 l 585 660 q 574 684 585 675 q 550 694 564 694 l 71 694 q 46 684 56 694 q 36 660 36 675 l 36 542 q 46 517 36 528 q 71 507 56 507 l 319 507 l 32 178 q 26 172 28 175 q 20 153 20 163 l 20 35 q 31 10 20 20 q 55 0 41 0 l 555 0 q 580 10 570 0 q 590 35 590 20 l 590 153 q 580 178 590 168 q 555 188 570 188 l 286 188 z "},"{":{"ha":591,"x_min":29,"x_max":517,"o":"m 494 1099 q 511 1092 504 1099 q 517 1076 517 1085 l 517 928 q 511 912 517 919 q 494 905 504 905 l 431 905 q 379 888 393 905 q 370 846 370 876 l 370 637 q 276 502 369 555 q 370 367 369 449 l 370 157 q 379 115 370 127 q 431 98 393 98 l 494 98 q 511 91 504 98 q 517 75 517 84 l 517 -73 q 511 -89 517 -82 q 494 -96 504 -96 l 355 -96 q 228 -48 278 -96 q 169 116 169 8 l 169 338 q 118 395 169 378 q 52 405 89 405 q 36 412 43 405 q 29 428 29 418 l 29 575 q 36 591 29 585 q 52 598 43 598 q 118 608 89 598 q 169 665 169 624 l 169 888 q 218 1044 169 989 q 359 1099 268 1099 l 494 1099 z "},"|":{"ha":751,"x_min":289,"x_max":463,"o":"m 289 1074 l 463 1074 l 463 -288 l 289 -288 l 289 1074 z "},"}":{"ha":591,"x_min":43,"x_max":531,"o":"m 66 -96 q 50 -89 56 -96 q 43 -73 43 -82 l 43 75 q 50 91 43 84 q 66 98 56 98 l 129 98 q 181 115 168 98 q 190 157 190 127 l 190 366 q 284 501 191 448 q 190 635 191 553 l 190 846 q 181 888 190 876 q 129 905 168 905 l 66 905 q 50 912 56 905 q 43 928 43 919 l 43 1076 q 50 1092 43 1085 q 66 1099 56 1099 l 205 1099 q 332 1051 282 1099 q 391 887 391 995 l 391 665 q 442 608 391 624 q 508 598 471 598 q 524 591 517 598 q 531 575 531 585 l 531 428 q 524 412 531 418 q 508 405 517 405 q 442 395 471 405 q 391 338 391 378 l 391 115 q 342 -41 391 14 q 201 -96 292 -96 l 66 -96 z "},"~":{"ha":751,"x_min":55,"x_max":700,"o":"m 143 347 q 125 355 133 347 l 67 412 q 56 435 58 420 q 62 460 55 449 q 213 573 115 538 q 401 546 297 604 q 524 522 479 503 q 590 580 558 536 q 610 592 597 591 q 631 584 621 593 l 689 525 q 699 501 698 516 q 692 476 700 487 q 604 393 656 425 q 472 356 543 356 q 370 391 435 356 q 268 425 305 425 q 196 393 233 425 q 166 360 175 374 q 146 347 158 349 q 143 347 144 347 z "},"¡":{"ha":456,"x_min":0,"x_max":0,"o":""},"¢":{"ha":772,"x_min":0,"x_max":0,"o":""},"£":{"ha":751,"x_min":54,"x_max":698,"o":"m 429 928 q 312 865 355 928 q 273 710 273 808 q 274 682 273 696 q 307 504 274 588 l 554 504 l 554 450 l 330 450 q 363 320 363 387 q 264 75 363 205 l 531 75 q 635 165 595 75 l 698 165 l 623 -7 l 79 -7 l 80 30 q 200 316 200 183 q 168 450 200 386 l 54 450 l 54 504 l 144 504 q 106 669 106 597 q 195 905 106 818 q 433 993 282 993 q 571 982 499 993 q 661 954 661 970 l 661 823 l 614 823 q 559 893 612 858 q 433 928 506 928 l 429 928 z "},"¤":{"ha":751,"x_min":92,"x_max":660,"o":"m 295 391 q 347 364 318 372 q 376 361 362 361 q 406 364 391 361 q 457 391 434 372 q 495 450 483 414 q 501 486 501 469 q 495 522 501 505 q 457 581 483 558 q 405 608 434 601 q 376 612 390 612 q 347 608 361 612 q 295 581 317 600 q 258 523 270 559 q 251 486 251 505 q 257 451 251 469 q 295 391 269 414 m 171 613 l 92 692 l 169 770 l 254 686 q 304 703 261 691 q 377 715 340 715 q 446 705 411 715 q 498 686 490 692 l 583 770 l 660 692 l 581 614 q 616 541 605 578 q 624 486 624 514 q 616 431 624 459 q 581 359 605 394 l 660 280 l 583 202 l 498 286 q 446 267 490 280 q 376 258 411 258 q 307 267 342 258 q 253 286 262 280 l 169 202 l 92 280 l 171 359 q 136 432 146 394 q 128 486 128 459 q 136 543 128 515 q 171 613 147 579 z "},"¥":{"ha":751,"x_min":-28,"x_max":779,"o":"m 473 373 l 473 197 q 541 47 473 47 l 595 47 l 595 0 l 155 0 l 155 47 l 210 47 q 277 197 277 47 l 277 373 l 122 373 l 122 427 l 277 427 l 277 470 l 264 495 l 122 495 l 122 549 l 237 549 l 96 828 q 7 926 39 926 l -28 926 l -28 972 l 330 972 l 330 926 l 296 926 q 260 901 260 926 q 298 808 260 869 l 418 551 l 534 814 q 566 897 566 867 q 530 926 566 926 l 498 926 l 498 972 l 779 972 l 779 926 l 755 926 q 644 823 702 926 l 512 549 l 629 549 l 629 495 l 486 495 l 473 469 l 473 427 l 629 427 l 629 373 l 473 373 z "},"¦":{"ha":751,"x_min":289,"x_max":463,"o":"m 289 252 l 463 252 l 463 -283 l 289 -283 l 289 252 m 289 972 l 463 972 l 463 437 l 289 437 l 289 972 z "},"§":{"ha":751,"x_min":121,"x_max":630,"o":"m 406 225 q 489 365 489 275 l 489 369 q 444 462 488 431 q 350 493 399 493 q 286 467 313 493 q 259 387 259 441 q 406 225 259 300 m 348 -230 q 448 -191 408 -227 q 496 -76 496 -149 q 289 111 496 12 q 163 208 199 158 q 127 324 127 258 q 188 480 127 420 q 308 542 239 530 q 162 644 203 588 q 121 766 121 700 q 183 926 121 862 q 366 990 245 989 q 513 977 457 990 q 570 947 570 964 l 570 811 l 517 811 q 473 904 514 875 q 353 935 433 933 q 280 909 307 935 q 253 829 253 884 q 440 647 253 736 q 586 546 547 599 q 624 422 624 494 q 555 236 624 311 q 481 188 520 206 q 595 99 561 146 q 630 -19 630 52 q 549 -208 630 -130 q 322 -286 467 -286 q 191 -273 247 -286 q 135 -243 135 -260 l 135 -107 l 194 -107 q 237 -199 197 -170 q 348 -230 277 -228 z "},"¨":{"ha":694,"x_min":155,"x_max":578,"o":"m 165 876 l 224 930 q 244 939 234 939 q 265 928 253 939 l 322 873 q 330 854 330 863 q 320 834 330 844 l 264 777 q 244 764 250 764 q 224 772 233 764 l 161 839 q 155 855 155 847 q 165 876 155 865 m 413 876 l 471 930 q 492 939 481 939 q 513 928 500 939 l 570 873 q 578 854 578 863 q 568 834 578 844 l 512 777 q 492 764 497 764 q 471 772 480 764 l 409 838 q 402 855 402 847 q 413 876 402 865 z "},"©":{"ha":1135,"x_min":64,"x_max":1072,"o":"m 780 315 l 826 315 l 826 246 q 772 192 826 221 q 604 162 718 163 q 411 210 496 162 q 283 334 325 258 q 241 488 241 410 q 284 642 241 565 q 413 765 326 718 q 595 812 499 812 q 670 803 640 812 q 713 794 701 794 q 724 813 724 794 l 767 813 l 818 673 l 774 673 q 670 753 703 738 q 585 769 636 769 q 464 700 534 766 q 393 497 393 633 q 456 295 393 385 q 604 205 519 205 q 731 233 684 205 q 780 315 779 260 m 570 991 q 767 950 673 991 q 932 836 861 909 q 1035 674 999 766 q 1072 487 1072 583 q 1035 300 1072 391 q 929 138 999 210 q 764 23 858 63 q 565 -16 671 -16 q 369 24 461 -16 q 205 139 277 64 q 99 300 135 210 q 64 487 64 389 q 99 674 64 584 q 203 836 135 765 q 368 950 273 909 q 570 991 463 991 m 245 809 q 150 667 186 752 q 113 487 113 583 q 150 307 113 391 q 254 158 186 223 q 400 64 321 96 q 566 33 479 33 q 734 64 654 33 q 880 157 814 96 q 985 307 947 222 q 1023 487 1023 392 q 985 667 1023 581 q 882 817 947 753 q 736 910 817 878 q 569 943 655 943 q 399 910 481 943 q 245 809 317 878 z "},"ª":{"ha":439,"x_min":0,"x_max":0,"o":""},"«":{"ha":669,"x_min":118,"x_max":601,"o":"m 118 325 l 357 537 l 390 537 l 390 505 l 251 325 l 390 144 l 390 113 l 357 113 l 118 325 m 329 325 l 568 537 l 601 537 l 601 505 l 462 325 l 601 144 l 601 113 l 568 113 l 329 325 z "},"¬":{"ha":751,"x_min":58,"x_max":680,"o":"m 58 524 l 680 524 l 680 183 l 679 182 l 561 182 l 561 448 l 58 448 l 58 524 z "},"®":{"ha":1135,"x_min":64,"x_max":1072,"o":"m 500 749 l 500 483 q 516 425 500 436 q 549 413 532 413 l 551 413 q 581 434 570 414 q 605 501 593 454 q 614 576 614 538 q 613 599 614 587 q 593 690 610 649 q 561 741 576 732 q 531 749 545 749 l 500 749 m 663 389 l 705 321 q 820 226 770 226 l 835 226 l 835 184 l 586 184 l 586 226 l 600 226 q 609 235 609 226 q 564 319 609 255 l 540 359 q 500 371 519 360 l 500 311 q 536 226 500 226 l 550 226 l 550 184 l 300 184 l 300 226 l 314 226 q 350 311 350 226 l 350 664 q 351 749 350 749 l 313 749 l 313 791 l 564 791 q 673 755 623 790 q 738 679 717 726 q 758 584 758 632 q 738 491 758 537 q 663 389 718 445 m 570 991 q 767 950 673 991 q 932 836 861 909 q 1035 674 999 766 q 1072 487 1072 583 q 1035 300 1072 391 q 929 138 999 210 q 764 23 858 63 q 565 -16 671 -16 q 369 24 461 -16 q 205 139 277 64 q 99 300 135 210 q 64 487 64 389 q 99 674 64 584 q 203 836 135 765 q 368 950 273 909 q 570 991 463 991 m 245 809 q 150 667 186 752 q 113 487 113 583 q 150 307 113 391 q 254 158 186 223 q 400 64 321 96 q 566 33 479 33 q 734 64 654 33 q 880 157 814 96 q 985 307 947 222 q 1023 487 1023 392 q 985 667 1023 581 q 882 817 947 753 q 736 910 817 878 q 569 943 655 943 q 399 910 481 943 q 245 809 317 878 z "},"¯":{"ha":454,"x_min":0,"x_max":0,"o":""},"°":{"ha":490,"x_min":41,"x_max":450,"o":"m 364 772 q 326 860 364 828 q 246 891 288 891 q 165 860 204 891 q 127 772 127 828 q 165 686 127 718 q 246 654 204 654 q 326 686 288 654 q 364 772 364 718 m 245 977 q 393 914 336 977 q 450 772 450 850 q 393 631 450 694 q 244 568 335 568 q 97 630 153 568 q 41 772 41 692 q 98 915 41 852 q 245 977 155 977 z "},"±":{"ha":688,"x_min":0,"x_max":0,"o":""},"²":{"ha":688,"x_min":0,"x_max":0,"o":""},"³":{"ha":688,"x_min":0,"x_max":0,"o":""},"´":{"ha":694,"x_min":151,"x_max":470,"o":"m 327 926 q 372 963 353 951 q 418 974 392 974 q 457 959 444 974 q 470 923 470 943 q 456 880 470 893 q 418 851 441 866 l 208 731 l 151 731 l 327 926 z "},"µ":{"ha":800,"x_min":0,"x_max":0,"o":""},"¶":{"ha":751,"x_min":66,"x_max":685,"o":"m 685 977 l 685 922 l 599 922 l 599 -4 l 519 -4 l 519 922 l 431 922 l 431 -4 l 322 -4 l 322 471 q 140 550 213 475 q 66 723 66 625 q 144 908 66 838 q 359 977 222 977 l 685 977 z "},"·":{"ha":375,"x_min":100,"x_max":276,"o":"m 100 486 q 125 549 100 523 q 188 574 151 574 q 250 549 224 574 q 276 486 276 523 q 250 424 276 450 q 188 398 224 398 q 125 424 151 398 q 100 486 100 450 z "},"¸":{"ha":724,"x_min":241,"x_max":547,"o":"m 241 -174 q 359 -222 319 -222 q 412 -211 396 -222 q 427 -170 427 -199 q 399 -131 427 -142 q 336 -123 379 -123 q 300 -125 320 -123 l 336 0 l 409 0 l 385 -59 q 408 -58 387 -58 q 511 -88 475 -58 q 547 -169 547 -119 q 504 -255 547 -222 q 384 -288 460 -288 q 241 -262 306 -288 l 241 -174 z "},"¹":{"ha":688,"x_min":0,"x_max":0,"o":""},"º":{"ha":487,"x_min":0,"x_max":0,"o":""},"»":{"ha":669,"x_min":68,"x_max":551,"o":"m 312 113 l 279 113 l 279 144 l 418 325 l 279 505 l 279 537 l 312 537 l 551 325 l 312 113 m 101 113 l 68 113 l 68 144 l 208 325 l 68 505 l 68 537 l 101 537 l 340 325 l 101 113 z "},"¼":{"ha":1158,"x_min":0,"x_max":0,"o":""},"½":{"ha":1332,"x_min":0,"x_max":0,"o":""},"¾":{"ha":1158,"x_min":0,"x_max":0,"o":""},"¿":{"ha":507,"x_min":0,"x_max":0,"o":""},"À":{"ha":1044,"x_min":0,"x_max":0,"o":""},"Á":{"ha":1044,"x_min":0,"x_max":0,"o":""},"Â":{"ha":1044,"x_min":0,"x_max":0,"o":""},"Ã":{"ha":1044,"x_min":0,"x_max":0,"o":""},"Ä":{"ha":1044,"x_min":0,"x_max":0,"o":""},"Å":{"ha":1044,"x_min":0,"x_max":0,"o":""},"Æ":{"ha":1436,"x_min":0,"x_max":0,"o":""},"Ç":{"ha":949,"x_min":0,"x_max":0,"o":""},"È":{"ha":781,"x_min":0,"x_max":0,"o":""},"É":{"ha":781,"x_min":0,"x_max":0,"o":""},"Ê":{"ha":781,"x_min":0,"x_max":0,"o":""},"Ë":{"ha":781,"x_min":0,"x_max":0,"o":""},"Ì":{"ha":446,"x_min":0,"x_max":0,"o":""},"Í":{"ha":446,"x_min":0,"x_max":0,"o":""},"Î":{"ha":446,"x_min":0,"x_max":0,"o":""},"Ï":{"ha":446,"x_min":0,"x_max":0,"o":""},"Ð":{"ha":1029,"x_min":0,"x_max":0,"o":""},"Ñ":{"ha":1054,"x_min":0,"x_max":0,"o":""},"Ò":{"ha":1095,"x_min":0,"x_max":0,"o":""},"Ó":{"ha":1095,"x_min":0,"x_max":0,"o":""},"Ô":{"ha":1095,"x_min":0,"x_max":0,"o":""},"Õ":{"ha":1095,"x_min":0,"x_max":0,"o":""},"Ö":{"ha":1095,"x_min":0,"x_max":0,"o":""},"×":{"ha":751,"x_min":116,"x_max":635,"o":"m 376 410 l 193 227 l 116 303 l 299 486 l 116 669 l 193 746 l 376 563 l 559 746 l 635 669 l 452 486 l 635 303 l 559 227 l 376 410 z "},"Ø":{"ha":1095,"x_min":0,"x_max":0,"o":""},"Ù":{"ha":1018,"x_min":0,"x_max":0,"o":""},"Ú":{"ha":1018,"x_min":0,"x_max":0,"o":""},"Û":{"ha":1018,"x_min":0,"x_max":0,"o":""},"Ü":{"ha":1018,"x_min":0,"x_max":0,"o":""},"Ý":{"ha":836,"x_min":0,"x_max":0,"o":""},"Þ":{"ha":760,"x_min":0,"x_max":0,"o":""},"ß":{"ha":848,"x_min":0,"x_max":0,"o":""},"à":{"ha":625,"x_min":0,"x_max":0,"o":""},"á":{"ha":625,"x_min":0,"x_max":0,"o":""},"â":{"ha":625,"x_min":0,"x_max":0,"o":""},"ã":{"ha":625,"x_min":0,"x_max":0,"o":""},"ä":{"ha":625,"x_min":0,"x_max":0,"o":""},"å":{"ha":625,"x_min":0,"x_max":0,"o":""},"æ":{"ha":986,"x_min":0,"x_max":0,"o":""},"ç":{"ha":614,"x_min":0,"x_max":0,"o":""},"è":{"ha":616,"x_min":0,"x_max":0,"o":""},"é":{"ha":616,"x_min":0,"x_max":0,"o":""},"ê":{"ha":616,"x_min":0,"x_max":0,"o":""},"ë":{"ha":616,"x_min":0,"x_max":0,"o":""},"ì":{"ha":349,"x_min":0,"x_max":0,"o":""},"í":{"ha":349,"x_min":0,"x_max":0,"o":""},"î":{"ha":349,"x_min":0,"x_max":0,"o":""},"ï":{"ha":349,"x_min":0,"x_max":0,"o":""},"ð":{"ha":772,"x_min":0,"x_max":0,"o":""},"ñ":{"ha":751,"x_min":0,"x_max":0,"o":""},"ò":{"ha":685,"x_min":0,"x_max":0,"o":""},"ó":{"ha":685,"x_min":0,"x_max":0,"o":""},"ô":{"ha":685,"x_min":0,"x_max":0,"o":""},"õ":{"ha":685,"x_min":0,"x_max":0,"o":""},"ö":{"ha":685,"x_min":0,"x_max":0,"o":""},"÷":{"ha":751,"x_min":54,"x_max":697,"o":"m 54 432 l 54 541 l 697 541 l 697 432 l 54 432 m 290 274 l 355 334 q 378 345 367 345 q 401 333 387 345 l 464 271 q 473 250 473 260 q 462 229 473 240 l 400 165 q 378 151 384 151 q 355 161 365 151 l 286 233 q 279 252 279 243 q 290 274 279 262 m 290 739 l 355 800 q 378 810 367 810 q 401 798 387 810 l 464 736 q 473 715 473 725 q 462 694 473 705 l 400 630 q 378 616 384 616 q 355 626 365 616 l 286 699 q 279 717 279 708 q 290 739 279 728 z "},"ø":{"ha":685,"x_min":0,"x_max":0,"o":""},"ù":{"ha":718,"x_min":0,"x_max":0,"o":""},"ú":{"ha":718,"x_min":0,"x_max":0,"o":""},"û":{"ha":718,"x_min":0,"x_max":0,"o":""},"ü":{"ha":718,"x_min":0,"x_max":0,"o":""},"ý":{"ha":589,"x_min":0,"x_max":0,"o":""},"þ":{"ha":685,"x_min":0,"x_max":0,"o":""},"ÿ":{"ha":589,"x_min":0,"x_max":0,"o":""},"ı":{"ha":414,"x_min":20,"x_max":393,"o":"m 294 153 q 330 41 294 41 l 393 41 l 393 0 l 28 0 l 28 41 l 92 41 q 127 153 127 41 l 127 443 q 85 490 127 490 l 20 490 l 20 520 q 213 650 171 568 l 294 650 l 294 153 z "},"ˆ":{"ha":612,"x_min":75,"x_max":509,"o":"m 75 732 l 241 975 l 342 975 l 509 732 l 441 732 l 292 865 l 142 732 l 75 732 z "},"ˇ":{"ha":733,"x_min":150,"x_max":583,"o":"m 150 975 l 217 975 l 367 844 l 516 975 l 583 975 l 417 732 l 316 732 l 150 975 z "},"ˉ":{"ha":724,"x_min":172,"x_max":552,"o":"m 172 804 l 172 902 l 552 902 l 552 804 l 172 804 z "},"˘":{"ha":726,"x_min":149,"x_max":576,"o":"m 149 928 l 212 928 q 260 853 225 874 q 363 833 295 833 q 466 853 431 833 q 513 928 500 873 l 576 928 q 508 781 562 831 q 363 732 455 732 q 218 782 273 732 q 149 928 164 831 z "},"˙":{"ha":724,"x_min":283,"x_max":459,"o":"m 294 876 l 341 925 q 355 934 347 930 q 373 938 363 938 q 390 934 382 938 q 404 924 397 930 l 451 873 q 457 865 456 870 q 459 855 459 861 q 457 845 458 849 q 450 835 456 840 l 402 783 q 387 771 393 774 q 373 768 381 768 q 354 771 362 768 q 340 781 345 774 l 290 839 q 285 847 286 843 q 283 857 283 851 q 286 866 283 861 q 294 876 288 871 z "},"˚":{"ha":724,"x_min":227,"x_max":498,"o":"m 295 864 q 316 815 295 833 q 361 797 336 797 q 407 815 387 797 q 428 864 428 833 q 407 911 428 893 q 361 930 386 930 q 316 911 337 930 q 295 864 295 893 m 227 864 q 265 956 227 917 q 361 996 302 996 q 460 956 422 996 q 498 864 498 916 q 460 771 498 810 q 361 732 422 732 q 265 771 302 732 q 227 864 227 810 z "},"˛":{"ha":725,"x_min":255,"x_max":535,"o":"m 473 0 q 391 -77 414 -44 q 367 -148 367 -111 q 382 -195 367 -180 q 420 -211 397 -211 q 514 -168 470 -211 l 535 -184 q 468 -256 509 -231 q 377 -281 427 -281 q 289 -254 322 -281 q 255 -189 255 -227 q 295 -86 255 -137 q 410 0 334 -35 l 473 0 z "},"˜":{"ha":727,"x_min":159,"x_max":581,"o":"m 581 944 q 530 829 566 867 q 432 791 494 791 q 337 807 385 791 q 255 823 290 823 q 225 812 237 823 q 204 761 214 802 l 159 761 q 209 879 173 840 q 309 918 245 918 q 398 901 351 917 q 481 886 446 886 q 512 897 500 886 q 535 944 524 907 l 581 944 z "},"˝":{"ha":728,"x_min":159,"x_max":591,"o":"m 159 732 l 260 916 q 294 960 277 945 q 337 975 312 975 q 381 959 365 975 q 398 924 398 943 q 391 902 398 914 q 369 874 383 889 l 225 732 l 159 732 m 352 732 l 453 916 q 488 960 470 945 q 530 975 505 975 q 575 959 558 975 q 591 924 591 943 q 584 902 591 914 q 562 874 576 889 l 418 732 l 352 732 z "},"–":{"ha":751,"x_min":38,"x_max":713,"o":"m 38 271 l 38 379 l 713 379 l 713 271 l 38 271 z "},"—":{"ha":1389,"x_min":0,"x_max":1389,"o":"m 0 271 l 0 379 l 1389 379 l 1389 271 l 0 271 z "},"‘":{"ha":336,"x_min":53,"x_max":281,"o":"m 57 676 q 85 798 53 732 q 159 898 115 859 q 194 928 183 920 q 214 941 210 939 q 236 939 227 947 l 252 924 q 248 902 260 915 q 210 836 214 869 q 231 772 203 793 l 231 772 q 281 679 281 739 q 248 600 281 633 q 169 568 215 568 q 91 600 123 568 q 58 677 58 631 l 57 676 z "},"’":{"ha":336,"x_min":58,"x_max":286,"o":"m 281 834 q 248 911 280 880 q 170 943 215 943 q 90 911 123 943 q 58 831 58 878 q 108 738 58 771 l 108 738 q 129 675 136 718 q 91 609 124 642 q 87 586 78 596 l 102 571 q 124 570 111 564 q 144 583 129 572 q 180 613 155 591 q 253 713 224 652 q 281 834 286 779 l 281 834 z "},"‚":{"ha":322,"x_min":50,"x_max":278,"o":"m 273 103 q 240 180 273 149 q 162 212 208 212 q 83 180 116 212 q 50 100 50 146 q 100 7 50 40 l 100 7 q 121 -56 128 -14 q 83 -122 117 -89 q 79 -145 71 -135 l 95 -160 q 117 -161 104 -167 q 137 -149 121 -159 q 172 -118 148 -140 q 245 -18 216 -79 q 274 103 278 48 l 273 103 z "},"“":{"ha":668,"x_min":53,"x_max":552,"o":"m 57 676 q 85 798 53 732 q 159 898 115 859 q 194 928 183 920 q 214 941 210 939 q 236 939 227 947 l 252 924 q 248 902 260 915 q 210 836 214 869 q 231 772 203 793 l 231 772 q 281 679 281 739 q 248 600 281 633 q 169 568 215 568 q 91 600 123 568 q 58 677 58 631 l 57 676 m 328 676 q 356 798 324 731 q 429 897 386 858 q 465 928 454 920 q 485 940 480 938 q 507 939 498 946 l 523 924 q 519 901 532 914 q 481 835 486 868 q 501 772 474 793 l 501 772 q 552 679 552 739 q 519 600 552 633 q 440 567 486 567 q 362 599 395 567 q 328 676 330 631 l 328 676 z "},"”":{"ha":668,"x_min":58,"x_max":555,"o":"m 281 834 q 248 911 280 880 q 170 943 215 943 q 90 911 123 943 q 58 831 58 878 q 108 738 58 771 l 108 738 q 129 675 136 718 q 91 609 124 642 q 87 586 78 596 l 102 571 q 124 570 111 564 q 144 583 129 572 q 180 613 155 591 q 253 713 224 652 q 281 834 286 779 l 281 834 m 551 834 q 517 911 550 880 q 439 943 485 943 q 360 911 393 943 q 328 831 328 878 q 378 739 328 772 l 378 739 q 399 675 406 718 q 361 609 394 642 q 357 586 348 596 l 372 572 q 394 570 381 564 q 414 583 399 572 q 450 613 425 591 q 524 713 494 652 q 551 834 555 779 l 551 834 z "},"„":{"ha":668,"x_min":58,"x_max":555,"o":"m 281 101 q 248 178 280 146 q 170 210 215 210 q 90 178 123 210 q 58 98 58 144 q 108 5 58 38 l 108 5 q 129 -58 136 -16 q 91 -124 124 -91 q 87 -147 78 -137 l 102 -162 q 124 -163 111 -169 q 144 -151 129 -161 q 180 -120 155 -142 q 253 -20 224 -81 q 281 101 286 46 l 281 101 m 551 101 q 517 178 550 146 q 439 210 485 210 q 360 178 393 210 q 328 98 328 145 q 378 5 328 39 l 378 5 q 399 -58 406 -16 q 361 -124 394 -91 q 357 -147 348 -137 l 372 -161 q 394 -163 381 -169 q 414 -150 399 -161 q 450 -120 425 -142 q 524 -20 494 -81 q 551 101 555 46 l 551 101 z "},"†":{"ha":751,"x_min":49,"x_max":699,"o":"m 353 -182 q 322 199 346 68 q 273 435 299 329 q 353 633 320 480 q 216 597 264 633 q 138 561 168 561 q 75 585 100 561 q 49 654 49 609 q 74 725 49 701 q 136 749 99 749 q 219 712 171 749 q 353 676 267 676 q 308 814 334 765 q 281 893 281 863 q 305 956 281 930 q 374 982 329 982 q 443 956 418 982 q 467 893 467 930 q 440 814 467 863 q 394 676 413 765 q 528 712 480 676 q 611 749 576 749 q 673 725 648 749 q 699 654 699 701 q 673 585 699 609 q 610 561 647 561 q 532 597 580 561 q 394 633 484 633 q 474 435 427 480 q 425 199 448 329 q 395 -181 401 68 l 353 -182 z "},"‡":{"ha":751,"x_min":49,"x_max":699,"o":"m 394 167 q 532 203 484 167 q 610 239 580 239 q 673 215 647 239 q 699 146 699 191 q 673 75 699 99 q 611 52 648 52 q 528 88 576 52 q 394 124 480 124 q 440 -14 413 35 q 467 -93 467 -63 q 443 -156 467 -130 q 374 -182 418 -182 q 305 -156 329 -182 q 281 -93 281 -130 q 308 -14 281 -63 q 353 124 334 35 q 219 88 267 124 q 136 52 171 52 q 74 75 99 52 q 49 146 49 99 q 75 215 49 191 q 138 239 100 239 q 216 203 168 239 q 353 167 264 167 q 273 400 320 320 q 353 633 320 480 q 216 597 264 633 q 138 561 168 561 q 75 585 100 561 q 49 654 49 609 q 74 725 49 701 q 136 749 99 749 q 219 712 171 749 q 353 676 267 676 q 308 814 334 765 q 281 893 281 863 q 305 956 281 930 q 374 982 329 982 q 443 956 418 982 q 467 893 467 930 q 440 814 467 863 q 394 676 413 765 q 528 712 480 676 q 611 749 576 749 q 673 725 648 749 q 699 654 699 701 q 673 585 699 609 q 610 561 647 561 q 532 597 580 561 q 394 633 484 633 q 474 400 427 480 q 394 167 427 320 z "},"•":{"ha":751,"x_min":149,"x_max":602,"o":"m 149 487 q 213 644 149 574 q 376 713 276 713 q 539 643 476 713 q 602 487 602 573 q 538 330 602 401 q 375 260 475 260 q 212 330 275 260 q 149 487 149 400 z "},"…":{"ha":1389,"x_min":174,"x_max":1295,"o":"m 186 120 l 250 180 q 273 191 262 191 q 296 179 283 191 l 359 117 q 368 96 368 106 q 357 75 368 86 l 296 11 q 273 -3 279 -3 q 250 7 260 -3 l 182 79 q 174 98 174 89 q 186 120 174 109 m 648 120 l 713 180 q 736 191 725 191 q 759 179 745 191 l 822 117 q 831 96 831 106 q 820 75 831 86 l 758 11 q 736 -3 742 -3 q 713 7 723 -3 l 644 79 q 637 98 637 89 q 648 120 637 109 m 1112 120 l 1177 180 q 1200 191 1189 191 q 1223 179 1209 191 l 1286 117 q 1295 96 1295 106 q 1284 75 1295 86 l 1222 11 q 1200 -3 1206 -3 q 1177 7 1187 -3 l 1108 79 q 1101 98 1101 89 q 1112 120 1101 109 z "},"‹":{"ha":458,"x_min":118,"x_max":390,"o":"m 118 325 l 357 537 l 390 537 l 390 505 l 251 325 l 390 144 l 390 113 l 357 113 l 118 325 z "},"›":{"ha":458,"x_min":68,"x_max":340,"o":"m 101 113 l 68 113 l 68 144 l 208 325 l 68 505 l 68 537 l 101 537 l 340 325 l 101 113 z "},"⁄":{"ha":597,"x_min":-13,"x_max":574,"o":"m 173 28 q 158 8 168 16 q 133 0 149 0 l 17 0 q -1 3 4 0 q -6 31 -13 13 l 389 901 q 403 921 393 913 q 429 929 413 929 l 544 929 q 562 926 557 929 q 568 898 574 916 l 173 28 z "},"₣":{"ha":751,"x_min":20,"x_max":735,"o":"m 127 308 l 127 775 q 53 926 127 926 l 20 926 l 20 972 l 660 972 l 735 804 l 659 804 q 569 926 619 926 l 397 926 q 323 775 323 926 l 323 526 l 566 526 q 604 562 604 526 l 604 608 l 670 608 l 670 365 l 604 365 l 604 413 q 566 447 604 447 l 323 447 l 323 308 l 450 308 l 450 227 l 323 227 l 323 197 q 397 47 323 47 l 458 47 l 458 0 l 20 0 l 20 47 l 53 47 q 127 197 127 47 l 127 227 l 20 227 l 20 308 l 127 308 z "},"₤":{"ha":751,"x_min":49,"x_max":703,"o":"m 437 928 l 434 928 q 317 865 359 928 q 278 710 278 808 q 279 682 278 696 q 296 564 279 631 l 549 564 l 549 510 l 313 510 q 336 449 323 481 l 572 449 l 572 395 l 357 395 q 368 320 368 358 q 269 75 368 205 l 536 75 q 640 165 600 75 l 703 165 l 627 -7 l 84 -7 l 85 30 q 205 316 205 183 q 194 395 205 356 l 72 395 l 72 449 l 173 449 l 172 450 l 173 450 q 149 510 159 481 l 49 510 l 49 564 l 130 564 q 111 669 111 629 q 200 905 111 818 q 432 993 289 993 l 437 993 q 576 982 504 993 q 665 954 665 970 l 665 823 l 618 823 q 564 893 616 858 q 437 928 511 928 z "},"₧":{"ha":1503,"x_min":60,"x_max":1461,"o":"m 346 926 l 346 487 q 388 382 346 416 q 449 353 422 353 l 452 353 q 502 394 471 356 q 551 509 533 433 q 565 636 565 571 q 564 668 565 652 q 533 820 559 751 q 477 907 507 888 q 425 926 448 926 l 346 926 m 1056 -3 q 989 -9 1026 -9 q 841 34 883 -9 q 800 151 800 77 l 800 610 l 730 610 q 702 492 725 550 q 606 367 671 417 q 460 317 541 317 q 346 363 376 317 l 346 197 q 406 47 346 47 l 479 47 l 479 0 l 60 0 l 60 47 l 121 47 q 169 197 169 47 l 169 775 q 121 926 169 926 l 60 926 l 60 972 l 465 972 q 605 924 541 972 q 701 800 669 875 q 732 650 730 726 l 753 650 q 894 887 867 650 l 966 887 l 966 650 l 1154 650 q 1238 663 1191 662 l 1240 663 q 1356 651 1295 663 q 1417 627 1417 640 l 1417 517 l 1371 517 q 1323 594 1354 572 q 1234 617 1293 617 q 1182 598 1206 617 q 1158 532 1158 579 q 1308 385 1158 455 q 1430 302 1398 345 q 1461 205 1461 260 q 1393 55 1461 118 q 1219 -8 1324 -8 q 1138 2 1183 -8 q 1103 -35 1113 0 l 1067 -34 l 1056 -3 m 966 609 l 966 151 q 988 69 966 90 q 1036 50 1004 54 l 986 184 l 1046 184 q 1215 38 1102 38 q 1295 68 1261 38 q 1329 159 1329 98 q 1162 312 1329 233 q 1057 391 1086 351 q 1027 481 1027 431 q 1081 609 1027 556 l 966 609 z "},"€":{"ha":751,"x_min":-30,"x_max":774,"o":"m 61 578 q 107 726 74 652 q 269 916 161 845 q 494 986 376 986 q 591 972 558 986 q 630 958 624 958 q 644 987 644 958 l 701 987 l 762 785 l 701 785 q 598 906 663 876 q 465 937 533 937 q 290 800 363 931 q 222 578 237 704 l 610 578 l 598 524 l 218 524 q 217 484 217 504 l 587 484 l 576 429 l 219 429 q 308 170 231 288 q 505 28 398 28 l 506 28 q 656 77 594 29 q 720 202 718 124 l 774 202 l 774 103 q 710 24 774 65 q 506 -20 646 -18 q 266 52 373 -20 q 106 241 159 123 q 56 429 64 334 l -30 429 l -18 484 l 53 484 q 54 524 53 504 l -7 524 l 5 578 l 61 578 z "},"№":{"ha":1540,"x_min":0,"x_max":0,"o":""},"™":{"ha":1015,"x_min":0,"x_max":0,"o":""},"∂":{"ha":751,"x_min":49,"x_max":703,"o":"m 228 311 q 270 154 237 227 q 343 49 303 81 q 401 21 378 21 l 406 21 q 466 61 432 23 q 516 177 500 99 q 527 281 527 228 q 524 340 527 311 q 481 498 514 424 q 408 603 448 572 q 347 630 372 630 l 344 630 q 287 591 321 629 q 235 475 253 553 q 224 366 224 416 q 228 311 224 336 m 703 326 q 665 162 703 241 q 548 33 627 83 q 376 -16 469 -16 q 204 33 283 -16 q 87 162 125 83 q 49 326 49 241 q 88 489 49 410 q 206 618 127 569 q 376 667 286 667 q 511 628 482 667 q 368 843 463 753 q 141 942 273 932 l 141 989 q 556 793 410 989 q 703 326 703 596 z "},"∆":{"ha":838,"x_min":4,"x_max":798,"o":"m 406 997 l 798 0 l 4 0 l 406 997 m 104 69 l 597 69 l 354 690 l 104 69 z "},"∏":{"ha":1135,"x_min":66,"x_max":1088,"o":"m 437 926 q 370 774 370 926 l 370 -85 q 437 -237 370 -237 l 505 -237 l 505 -285 l 66 -285 l 66 -237 l 134 -237 q 201 -85 201 -237 l 201 774 q 134 926 201 926 l 66 926 l 66 972 l 1088 972 l 1088 926 l 1019 926 q 953 774 953 926 l 953 -85 q 1020 -237 953 -237 l 1088 -237 l 1088 -284 l 648 -284 l 648 -237 l 716 -237 q 783 -85 783 -237 l 783 774 q 716 926 783 926 l 437 926 z "},"∑":{"ha":871,"x_min":76,"x_max":831,"o":"m 720 433 l 199 -238 l 665 -238 q 768 -149 728 -238 l 831 -149 l 756 -285 l 76 -285 l 76 -238 q 155 -202 127 -238 l 570 334 l 155 888 q 76 925 127 925 l 76 972 l 756 972 l 831 836 l 768 836 q 665 925 728 925 l 349 925 l 720 433 z "},"−":{"ha":751,"x_min":54,"x_max":697,"o":"m 54 432 l 54 541 l 697 541 l 697 432 l 54 432 z "},"√":{"ha":751,"x_min":110,"x_max":810,"o":"m 235 -18 l 110 275 l 206 307 l 258 191 l 698 1125 l 810 1125 l 810 1071 l 747 1071 l 235 -18 z "},"∞":{"ha":751,"x_min":39,"x_max":712,"o":"m 318 514 q 267 578 311 559 q 204 593 234 593 q 186 592 195 593 q 116 562 149 585 q 71 511 84 538 q 59 469 59 487 l 59 465 q 76 421 60 444 q 127 387 92 398 q 174 378 150 378 q 200 380 187 378 q 268 410 237 389 q 318 514 298 431 m 349 463 q 414 385 355 422 q 506 353 463 353 q 524 355 515 353 q 613 391 572 363 q 672 452 654 418 q 689 509 689 484 l 689 513 q 666 569 688 540 q 600 612 644 597 q 540 621 570 621 q 507 618 524 621 q 412 576 455 611 q 349 463 368 542 m 332 585 q 347 627 336 600 q 420 725 374 691 q 515 758 467 758 q 609 725 563 758 q 684 627 655 692 q 712 486 712 562 q 684 346 712 412 q 609 247 655 280 q 515 214 563 214 q 420 248 467 214 q 347 346 374 281 q 332 389 336 372 q 323 366 330 381 q 266 283 302 311 q 193 256 230 256 q 120 284 157 256 q 61 368 83 312 q 39 486 39 424 q 61 604 39 548 q 120 689 83 661 q 193 717 157 717 q 266 689 230 717 q 323 608 302 661 q 332 585 331 591 z "},"∫":{"ha":460,"x_min":-35,"x_max":556,"o":"m 31 -194 q -35 -170 -35 -194 l -35 -58 l 13 -58 q 30 -106 14 -96 q 81 -117 46 -117 q 141 -10 126 -117 q 161 201 155 96 l 208 699 l 214 741 q 307 1034 231 899 q 490 1168 383 1168 q 556 1144 556 1168 l 556 1032 l 507 1032 q 490 1080 507 1069 q 439 1090 473 1090 q 379 988 401 1090 q 353 743 356 886 l 304 224 q 213 -62 290 71 q 31 -194 136 -194 z "},"≈":{"ha":751,"x_min":75,"x_max":677,"o":"m 677 748 l 677 590 q 592 523 634 541 q 509 505 550 505 q 373 537 466 505 q 242 570 280 570 q 174 552 210 570 q 75 462 138 534 l 75 620 q 160 688 118 669 q 242 707 202 707 q 380 673 288 707 q 509 640 473 640 q 577 657 541 640 q 677 748 614 675 m 677 512 l 677 354 q 592 287 634 304 q 509 269 550 269 q 373 301 466 269 q 242 334 280 334 q 174 316 210 334 q 75 226 138 298 l 75 384 q 160 452 118 433 q 242 471 202 471 q 380 437 288 471 q 509 404 473 404 q 577 421 541 404 q 677 512 614 439 z "},"≤":{"ha":751,"x_min":54,"x_max":697,"o":"m 697 723 l 265 486 l 697 250 l 697 111 l 54 464 l 54 508 l 697 863 l 697 723 m 54 1 l 54 109 l 697 109 l 697 1 l 54 1 z "},"≥":{"ha":751,"x_min":54,"x_max":697,"o":"m 54 863 l 697 507 l 697 463 l 54 110 l 54 250 l 486 485 l 54 722 l 54 863 m 54 1 l 54 109 l 697 109 l 697 1 l 54 1 z "},"":{"ha":728,"x_min":0,"x_max":0,"o":""},"":{"ha":733,"x_min":0,"x_max":0,"o":""}}}
